<svg width="802" height="629" viewBox="0 0 802 629" fill="none" xmlns="http://www.w3.org/2000/svg">
<path d="M722.161 440.643H75.4481C75.1822 440.643 74.9272 440.533 74.7392 440.337C74.5512 440.142 74.4456 439.877 74.4456 439.6C74.4456 439.323 74.5512 439.058 74.7392 438.862C74.9272 438.667 75.1822 438.557 75.4481 438.557H722.161C722.427 438.557 722.682 438.667 722.87 438.862C723.058 439.058 723.163 439.323 723.163 439.6C723.158 439.875 723.051 440.137 722.864 440.332C722.677 440.526 722.425 440.638 722.161 440.643Z" fill="#D1D3D4"/>
<path d="M311.216 323.138H97.1221V439.6H311.216V323.138Z" fill="white"/>
<path d="M311.216 440.643H97.1221C96.8562 440.643 96.6013 440.533 96.4133 440.337C96.2252 440.142 96.1196 439.876 96.1196 439.6V323.138C96.1196 322.861 96.2252 322.596 96.4133 322.4C96.6013 322.204 96.8562 322.094 97.1221 322.094H311.216C311.482 322.094 311.737 322.204 311.925 322.4C312.113 322.596 312.219 322.861 312.219 323.138V439.683C312.198 439.945 312.084 440.19 311.898 440.368C311.712 440.545 311.469 440.644 311.216 440.643ZM98.1246 438.557H310.214V324.181H98.1246V438.557Z" fill="#D1D3D4"/>
<path d="M311.216 323.138H97.1221V330.19H311.216V323.138Z" fill="white"/>
<path d="M311.216 331.191H97.1221C96.8562 331.191 96.6013 331.081 96.4133 330.885C96.2252 330.69 96.1196 330.424 96.1196 330.148V323.117C96.1196 322.84 96.2252 322.575 96.4133 322.379C96.6013 322.183 96.8562 322.073 97.1221 322.073H311.216C311.482 322.073 311.737 322.183 311.925 322.379C312.113 322.575 312.219 322.84 312.219 323.117V330.148C312.219 330.424 312.113 330.69 311.925 330.885C311.737 331.081 311.482 331.191 311.216 331.191ZM98.1246 329.105H310.214V324.16H98.1246V329.105Z" fill="#D1D3D4"/>
<path d="M227.307 301.836H181.052V439.6H227.307V301.836Z" fill="white"/>
<path d="M227.287 440.643H181.051C180.785 440.643 180.53 440.533 180.342 440.337C180.154 440.142 180.049 439.877 180.049 439.6V301.898C180.049 301.622 180.154 301.356 180.342 301.161C180.53 300.965 180.785 300.855 181.051 300.855H227.287C227.553 300.855 227.807 300.965 227.996 301.161C228.184 301.356 228.289 301.622 228.289 301.898V439.6C228.289 439.877 228.184 440.142 227.996 440.337C227.807 440.533 227.553 440.643 227.287 440.643ZM182.054 438.557H226.284V302.941H182.054V438.557Z" fill="#D1D3D4"/>
<path d="M230.815 293.386H177.502V301.836H230.815V293.386Z" fill="white"/>
<path d="M230.815 302.858H177.502C177.237 302.858 176.982 302.748 176.794 302.552C176.606 302.357 176.5 302.091 176.5 301.815V293.469C176.5 293.192 176.606 292.927 176.794 292.731C176.982 292.536 177.237 292.426 177.502 292.426H230.815C231.081 292.426 231.336 292.536 231.524 292.731C231.712 292.927 231.818 293.192 231.818 293.469V301.815C231.818 302.091 231.712 302.357 231.524 302.552C231.336 302.748 231.081 302.858 230.815 302.858ZM178.505 300.771H229.813V294.512H178.445L178.505 300.771Z" fill="#D1D3D4"/>
<path d="M214.695 412.998H193.623V439.579H214.695V412.998Z" fill="white"/>
<path d="M214.715 440.643H193.623C193.359 440.638 193.107 440.526 192.92 440.331C192.733 440.137 192.625 439.875 192.62 439.6V412.998C192.625 412.723 192.733 412.461 192.92 412.267C193.107 412.072 193.359 411.96 193.623 411.955H214.715C214.98 411.96 215.232 412.072 215.419 412.267C215.606 412.461 215.713 412.723 215.718 412.998V439.683C215.693 439.943 215.578 440.185 215.393 440.362C215.208 440.539 214.967 440.639 214.715 440.643ZM194.665 438.557H213.753V414.041H194.625L194.665 438.557Z" fill="#D1D3D4"/>
<path d="M214.695 417.672H193.623V439.6H214.695V417.672Z" fill="white"/>
<path d="M214.715 440.643H193.623C193.359 440.638 193.107 440.526 192.92 440.332C192.733 440.137 192.625 439.875 192.62 439.6V417.672C192.62 417.395 192.726 417.13 192.914 416.934C193.102 416.739 193.357 416.629 193.623 416.629H214.715C214.981 416.629 215.236 416.739 215.424 416.934C215.612 417.13 215.718 417.395 215.718 417.672V439.683C215.693 439.943 215.578 440.185 215.393 440.362C215.208 440.539 214.967 440.639 214.715 440.643ZM194.665 438.557H213.753V418.819H194.625L194.665 438.557Z" fill="#D1D3D4"/>
<path d="M122.846 343.688H111.939V359.858H122.846V343.688Z" fill="white"/>
<path d="M122.846 360.901H111.939C111.673 360.901 111.418 360.791 111.23 360.596C111.042 360.4 110.937 360.135 110.937 359.858V343.709C110.937 343.433 111.042 343.167 111.23 342.972C111.418 342.776 111.673 342.666 111.939 342.666H122.846C123.112 342.666 123.367 342.776 123.555 342.972C123.743 343.167 123.849 343.433 123.849 343.709V359.879C123.843 360.152 123.736 360.412 123.548 360.603C123.361 360.794 123.109 360.901 122.846 360.901ZM112.942 358.815H121.844V344.732H112.942V358.815Z" fill="#D1D3D4"/>
<path d="M145.423 343.688H134.515V359.858H145.423V343.688Z" fill="white"/>
<path d="M145.443 360.901H134.515C134.251 360.896 133.999 360.784 133.812 360.59C133.625 360.395 133.518 360.133 133.513 359.858V343.709C133.513 343.433 133.619 343.167 133.807 342.972C133.995 342.776 134.25 342.666 134.515 342.666H145.443C145.709 342.666 145.964 342.776 146.152 342.972C146.34 343.167 146.445 343.433 146.445 343.709V359.879C146.435 360.15 146.326 360.407 146.139 360.597C145.953 360.787 145.704 360.896 145.443 360.901ZM135.418 358.815H144.36V344.732H135.518L135.418 358.815Z" fill="#D1D3D4"/>
<path d="M168.019 343.688H157.112V359.858H168.019V343.688Z" fill="white"/>
<path d="M168.019 360.901H157.112C156.846 360.901 156.591 360.791 156.403 360.596C156.215 360.4 156.109 360.135 156.109 359.858V343.709C156.109 343.433 156.215 343.167 156.403 342.972C156.591 342.776 156.846 342.666 157.112 342.666H168.019C168.285 342.666 168.54 342.776 168.728 342.972C168.916 343.167 169.021 343.433 169.021 343.709V359.879C169.016 360.152 168.908 360.412 168.721 360.603C168.533 360.794 168.281 360.901 168.019 360.901ZM158.114 358.815H167.016V344.732H158.114V358.815Z" fill="#D1D3D4"/>
<path d="M122.846 366.743H111.939V382.913H122.846V366.743Z" fill="white"/>
<path d="M122.846 383.956H111.939C111.673 383.956 111.418 383.846 111.23 383.65C111.042 383.455 110.937 383.189 110.937 382.913V366.66C110.937 366.383 111.042 366.118 111.23 365.922C111.418 365.726 111.673 365.616 111.939 365.616H122.846C123.112 365.616 123.367 365.726 123.555 365.922C123.743 366.118 123.849 366.383 123.849 366.66V382.829C123.86 382.973 123.842 383.118 123.797 383.254C123.751 383.39 123.679 383.515 123.585 383.621C123.491 383.727 123.377 383.812 123.249 383.869C123.122 383.927 122.985 383.956 122.846 383.956ZM112.942 381.869H121.844V367.786H112.942V381.869Z" fill="#D1D3D4"/>
<path d="M145.423 366.743H134.515V382.913H145.423V366.743Z" fill="white"/>
<path d="M145.443 383.956H134.515C134.251 383.95 133.999 383.839 133.812 383.644C133.625 383.45 133.518 383.188 133.513 382.913V366.66C133.513 366.383 133.619 366.118 133.807 365.922C133.995 365.726 134.25 365.616 134.515 365.616H145.443C145.709 365.616 145.964 365.726 146.152 365.922C146.34 366.118 146.445 366.383 146.445 366.66V382.829C146.453 382.972 146.434 383.116 146.387 383.251C146.341 383.386 146.268 383.51 146.175 383.615C146.081 383.72 145.968 383.805 145.842 383.863C145.716 383.922 145.581 383.953 145.443 383.956ZM135.418 381.869H144.36V367.786H135.518L135.418 381.869Z" fill="#D1D3D4"/>
<path d="M168.019 366.743H157.112V382.913H168.019V366.743Z" fill="white"/>
<path d="M168.019 383.956H157.112C156.846 383.956 156.591 383.846 156.403 383.65C156.215 383.455 156.109 383.189 156.109 382.913V366.66C156.109 366.383 156.215 366.118 156.403 365.922C156.591 365.726 156.846 365.616 157.112 365.616H168.019C168.285 365.616 168.54 365.726 168.728 365.922C168.916 366.118 169.021 366.383 169.021 366.66V382.829C169.032 382.973 169.015 383.118 168.969 383.254C168.924 383.39 168.852 383.515 168.758 383.621C168.663 383.727 168.549 383.812 168.422 383.869C168.295 383.927 168.158 383.956 168.019 383.956ZM158.114 381.869H167.016V367.786H158.114V381.869Z" fill="#D1D3D4"/>
<path d="M122.846 389.798H111.939V405.967H122.846V389.798Z" fill="white"/>
<path d="M122.846 407.01H111.939C111.673 407.01 111.418 406.9 111.23 406.705C111.042 406.509 110.937 406.244 110.937 405.967V389.798C110.937 389.521 111.042 389.256 111.23 389.06C111.418 388.864 111.673 388.754 111.939 388.754H122.846C123.112 388.754 123.367 388.864 123.555 389.06C123.743 389.256 123.849 389.521 123.849 389.798V405.967C123.849 406.244 123.743 406.509 123.555 406.705C123.367 406.9 123.112 407.01 122.846 407.01ZM112.942 404.924H121.844V390.841H112.942V404.924Z" fill="#D1D3D4"/>
<path d="M145.423 389.798H134.515V405.967H145.423V389.798Z" fill="white"/>
<path d="M145.443 407.01H134.515C134.251 407.005 133.999 406.893 133.812 406.699C133.625 406.504 133.518 406.242 133.513 405.967V389.798C133.513 389.521 133.619 389.256 133.807 389.06C133.995 388.864 134.25 388.754 134.515 388.754H145.443C145.709 388.754 145.964 388.864 146.152 389.06C146.34 389.256 146.445 389.521 146.445 389.798V405.967C146.44 406.242 146.333 406.504 146.146 406.699C145.959 406.893 145.707 407.005 145.443 407.01ZM135.418 404.924H144.36V390.841H135.518L135.418 404.924Z" fill="#D1D3D4"/>
<path d="M168.019 389.798H157.112V405.967H168.019V389.798Z" fill="white"/>
<path d="M168.019 407.01H157.112C156.846 407.01 156.591 406.9 156.403 406.705C156.215 406.509 156.109 406.244 156.109 405.967V389.798C156.109 389.521 156.215 389.256 156.403 389.06C156.591 388.864 156.846 388.754 157.112 388.754H168.019C168.285 388.754 168.54 388.864 168.728 389.06C168.916 389.256 169.021 389.521 169.021 389.798V405.967C169.021 406.244 168.916 406.509 168.728 406.705C168.54 406.9 168.285 407.01 168.019 407.01ZM158.114 404.924H167.016V390.841H158.114V404.924Z" fill="#D1D3D4"/>
<path d="M251.567 343.688H240.66V359.858H251.567V343.688Z" fill="white"/>
<path d="M251.567 360.901H240.6C240.334 360.901 240.079 360.791 239.891 360.596C239.703 360.4 239.597 360.135 239.597 359.858V343.709C239.597 343.433 239.703 343.167 239.891 342.972C240.079 342.776 240.334 342.666 240.6 342.666H251.507C251.773 342.666 252.028 342.776 252.216 342.972C252.404 343.167 252.51 343.433 252.51 343.709V359.879C252.505 360.142 252.405 360.393 252.231 360.582C252.056 360.772 251.819 360.886 251.567 360.901ZM241.663 358.815H250.625V344.732H241.723L241.663 358.815Z" fill="#D1D3D4"/>
<path d="M274.144 343.688H263.236V359.858H274.144V343.688Z" fill="white"/>
<path d="M274.144 360.901H263.236C262.971 360.901 262.716 360.791 262.528 360.596C262.34 360.4 262.234 360.135 262.234 359.858V343.709C262.234 343.433 262.34 343.167 262.528 342.972C262.716 342.776 262.971 342.666 263.236 342.666H274.144C274.409 342.666 274.664 342.776 274.852 342.972C275.04 343.167 275.146 343.433 275.146 343.709V359.879C275.141 360.152 275.033 360.412 274.845 360.603C274.658 360.794 274.406 360.901 274.144 360.901ZM264.239 358.815H273.141V344.732H264.239V358.815Z" fill="#D1D3D4"/>
<path d="M296.72 343.688H285.813V359.858H296.72V343.688Z" fill="white"/>
<path d="M296.74 360.901H285.813C285.548 360.896 285.296 360.784 285.109 360.59C284.922 360.395 284.815 360.133 284.81 359.858V343.709C284.81 343.433 284.916 343.167 285.104 342.972C285.292 342.776 285.547 342.666 285.813 342.666H296.74C297.006 342.666 297.261 342.776 297.449 342.972C297.637 343.167 297.742 343.433 297.742 343.709V359.879C297.732 360.15 297.623 360.407 297.436 360.597C297.25 360.787 297.001 360.896 296.74 360.901ZM286.815 358.815H295.737V344.732H286.815V358.815Z" fill="#D1D3D4"/>
<path d="M251.567 366.743H240.66V382.913H251.567V366.743Z" fill="white"/>
<path d="M251.567 383.956H240.6C240.334 383.956 240.079 383.846 239.891 383.65C239.703 383.455 239.597 383.189 239.597 382.913V366.66C239.597 366.383 239.703 366.118 239.891 365.922C240.079 365.726 240.334 365.616 240.6 365.616H251.507C251.773 365.616 252.028 365.726 252.216 365.922C252.404 366.118 252.51 366.383 252.51 366.66V382.829C252.521 382.968 252.505 383.107 252.463 383.24C252.421 383.372 252.354 383.494 252.267 383.599C252.179 383.704 252.072 383.79 251.952 383.851C251.831 383.912 251.701 383.948 251.567 383.956ZM241.663 381.869H250.625V367.786H241.723L241.663 381.869Z" fill="#D1D3D4"/>
<path d="M274.144 366.743H263.236V382.913H274.144V366.743Z" fill="white"/>
<path d="M274.144 383.956H263.236C262.971 383.956 262.716 383.846 262.528 383.65C262.34 383.455 262.234 383.189 262.234 382.913V366.66C262.234 366.383 262.34 366.118 262.528 365.922C262.716 365.726 262.971 365.616 263.236 365.616H274.144C274.409 365.616 274.664 365.726 274.852 365.922C275.04 366.118 275.146 366.383 275.146 366.66V382.829C275.157 382.973 275.14 383.118 275.094 383.254C275.049 383.39 274.977 383.515 274.882 383.621C274.788 383.727 274.674 383.812 274.547 383.869C274.42 383.927 274.282 383.956 274.144 383.956ZM264.239 381.869H273.141V367.786H264.239V381.869Z" fill="#D1D3D4"/>
<path d="M296.72 366.743H285.813V382.913H296.72V366.743Z" fill="white"/>
<path d="M296.74 383.956H285.813C285.548 383.95 285.296 383.839 285.109 383.644C284.922 383.45 284.815 383.188 284.81 382.913V366.66C284.81 366.383 284.916 366.118 285.104 365.922C285.292 365.726 285.547 365.616 285.813 365.616H296.74C297.006 365.616 297.261 365.726 297.449 365.922C297.637 366.118 297.742 366.383 297.742 366.66V382.829C297.75 382.972 297.731 383.116 297.684 383.251C297.638 383.386 297.565 383.51 297.472 383.615C297.378 383.72 297.265 383.805 297.139 383.863C297.013 383.922 296.878 383.953 296.74 383.956ZM286.815 381.869H295.737V367.786H286.815V381.869Z" fill="#D1D3D4"/>
<path d="M251.567 389.798H240.66V405.967H251.567V389.798Z" fill="white"/>
<path d="M251.567 407.01H240.6C240.334 407.01 240.079 406.9 239.891 406.705C239.703 406.509 239.597 406.244 239.597 405.967V389.798C239.597 389.521 239.703 389.256 239.891 389.06C240.079 388.864 240.334 388.754 240.6 388.754H251.507C251.773 388.754 252.028 388.864 252.216 389.06C252.404 389.256 252.51 389.521 252.51 389.798V405.967C252.51 406.233 252.413 406.49 252.238 406.683C252.062 406.877 251.823 406.994 251.567 407.01ZM241.663 404.924H250.625V390.841H241.723L241.663 404.924Z" fill="#D1D3D4"/>
<path d="M274.144 389.798H263.236V405.967H274.144V389.798Z" fill="white"/>
<path d="M274.144 407.01H263.236C262.971 407.01 262.716 406.9 262.528 406.705C262.34 406.509 262.234 406.244 262.234 405.967V389.798C262.234 389.521 262.34 389.256 262.528 389.06C262.716 388.864 262.971 388.754 263.236 388.754H274.144C274.409 388.754 274.664 388.864 274.852 389.06C275.04 389.256 275.146 389.521 275.146 389.798V405.967C275.146 406.244 275.04 406.509 274.852 406.705C274.664 406.9 274.409 407.01 274.144 407.01ZM264.239 404.924H273.141V390.841H264.239V404.924Z" fill="#D1D3D4"/>
<path d="M296.72 389.798H285.813V405.967H296.72V389.798Z" fill="white"/>
<path d="M296.74 407.01H285.813C285.548 407.005 285.296 406.893 285.109 406.699C284.922 406.504 284.815 406.242 284.81 405.967V389.798C284.81 389.521 284.916 389.256 285.104 389.06C285.292 388.864 285.547 388.754 285.813 388.754H296.74C297.006 388.754 297.261 388.864 297.449 389.06C297.637 389.256 297.742 389.521 297.742 389.798V405.967C297.737 406.242 297.63 406.504 297.443 406.699C297.256 406.893 297.004 407.005 296.74 407.01ZM286.815 404.924H295.737V390.841H286.815V404.924Z" fill="#D1D3D4"/>
<path d="M351.597 429.585C351.359 429.588 351.128 429.5 350.947 429.339C350.767 429.178 350.648 428.954 350.614 428.709C350.18 427.003 349.355 425.433 348.209 424.132C347.064 422.832 345.633 421.839 344.038 421.24C342.443 420.641 340.733 420.454 339.053 420.693C337.373 420.933 335.775 421.593 334.394 422.617C334.266 422.731 334.113 422.81 333.948 422.846C333.784 422.883 333.613 422.876 333.451 422.825C333.291 422.773 333.146 422.681 333.027 422.557C332.908 422.434 332.82 422.282 332.77 422.116C332.288 420.395 331.467 418.797 330.359 417.425C329.251 416.053 327.88 414.936 326.334 414.146C324.816 413.277 323.141 412.745 321.416 412.583C319.69 412.421 317.951 412.634 316.309 413.207C316.184 413.258 316.051 413.283 315.917 413.279C315.783 413.276 315.651 413.245 315.529 413.187C315.406 413.13 315.297 413.047 315.206 412.945C315.114 412.843 315.044 412.722 314.998 412.591C314.953 412.46 314.933 412.321 314.94 412.181C314.947 412.042 314.981 411.906 315.04 411.78C315.098 411.655 315.18 411.543 315.281 411.451C315.382 411.359 315.5 411.289 315.627 411.246C317.521 410.581 319.527 410.333 321.519 410.516C323.51 410.699 325.443 411.31 327.196 412.31C330.35 413.96 332.828 416.737 334.173 420.134C335.742 419.177 337.499 418.604 339.312 418.455C341.125 418.307 342.946 418.589 344.639 419.278C346.609 419.929 348.376 421.116 349.757 422.715C351.139 424.314 352.086 426.268 352.499 428.375C352.54 428.648 352.477 428.928 352.324 429.153C352.17 429.379 351.938 429.534 351.677 429.585H351.597Z" fill="#D1D3D4"/>
<path d="M726.552 433.8C726.303 433.795 726.064 433.695 725.882 433.517C725.701 433.34 725.589 433.098 725.569 432.84C725.292 430.819 724.594 428.885 723.525 427.172C722.456 425.46 721.041 424.012 719.378 422.927C717.715 421.843 715.846 421.148 713.899 420.893C711.952 420.638 709.975 420.827 708.106 421.448C707.977 421.51 707.837 421.542 707.695 421.542C707.553 421.542 707.413 421.51 707.284 421.448C707.157 421.376 707.046 421.277 706.956 421.159C706.867 421.041 706.801 420.905 706.762 420.76C706.057 417.63 704.634 414.725 702.615 412.293C700.596 409.86 698.041 407.973 695.168 406.792C692.295 405.611 689.19 405.171 686.118 405.511C683.047 405.85 680.1 406.959 677.53 408.742C677.307 408.888 677.039 408.939 676.782 408.884C676.524 408.83 676.296 408.675 676.146 408.45C674.661 406.095 672.579 404.214 670.13 403.013C667.682 401.813 664.962 401.341 662.271 401.649C659.668 402.071 657.303 403.472 655.625 405.587C653.948 407.701 653.074 410.383 653.169 413.124C653.19 413.354 653.136 413.585 653.018 413.78C652.899 413.975 652.721 414.124 652.512 414.202C652.304 414.281 652.076 414.286 651.864 414.215C651.653 414.144 651.47 414.003 651.344 413.812C650.868 413.141 650.269 412.576 649.58 412.15C648.891 411.723 648.128 411.444 647.334 411.329C645.03 410.955 642.676 411.515 640.758 412.894C637.911 414.981 635.926 418.548 634.502 424.077C634.447 424.283 634.333 424.467 634.176 424.605C634.018 424.743 633.825 424.828 633.62 424.849C633.414 424.863 633.209 424.813 633.03 424.705C632.852 424.597 632.708 424.437 632.617 424.244C632.18 423.345 631.573 422.548 630.832 421.899C630.091 421.25 629.232 420.763 628.307 420.468C625.533 419.52 622.514 419.729 619.886 421.052C615.294 423.43 612.347 428.25 609.861 433.07C609.8 433.192 609.715 433.301 609.614 433.389C609.512 433.478 609.394 433.544 609.267 433.585C609.14 433.626 609.007 433.64 608.875 433.627C608.743 433.613 608.614 433.573 608.497 433.508C608.267 433.371 608.096 433.147 608.021 432.883C607.946 432.618 607.973 432.333 608.096 432.089C610.763 426.956 613.931 421.824 619.024 419.195C622.148 417.605 625.746 417.35 629.049 418.486C630.674 419.037 632.128 420.031 633.259 421.365C634.268 417.331 636.523 413.754 639.675 411.183C642.013 409.498 644.887 408.818 647.695 409.285C648.949 409.503 650.141 410.009 651.184 410.766C651.646 407.975 652.927 405.402 654.851 403.399C656.775 401.397 659.249 400.064 661.931 399.583C664.831 399.235 667.768 399.688 670.447 400.897C673.125 402.106 675.45 404.027 677.189 406.468C679.964 404.734 683.085 403.686 686.311 403.404C689.537 403.122 692.782 403.613 695.797 404.84C698.812 406.067 701.517 407.998 703.703 410.482C705.889 412.967 707.498 415.941 708.407 419.174C710.44 418.624 712.562 418.526 714.635 418.886C716.707 419.245 718.684 420.054 720.437 421.261C722.396 422.474 724.058 424.144 725.293 426.139C726.528 428.133 727.302 430.398 727.554 432.757C727.565 432.894 727.55 433.032 727.509 433.163C727.469 433.294 727.404 433.415 727.318 433.52C727.233 433.624 727.128 433.71 727.01 433.773C726.892 433.835 726.764 433.873 726.632 433.883L726.552 433.8Z" fill="#D1D3D4"/>
<path d="M299.266 577.385C299.123 577.384 298.981 577.351 298.85 577.29C298.718 577.229 298.601 577.141 298.504 577.03L190.234 448.571C190.059 448.361 189.971 448.087 189.99 447.809C190.008 447.531 190.132 447.273 190.335 447.09C190.537 446.907 190.8 446.816 191.067 446.835C191.334 446.855 191.583 446.984 191.758 447.194L300.028 575.653C300.121 575.749 300.196 575.862 300.246 575.987C300.297 576.113 300.323 576.247 300.323 576.383C300.323 576.52 300.297 576.654 300.246 576.78C300.196 576.905 300.121 577.019 300.028 577.114C299.927 577.214 299.807 577.289 299.676 577.336C299.544 577.383 299.404 577.4 299.266 577.385Z" fill="#D1D3D4"/>
<path d="M714.482 564.053H714.241L235.908 446.527C235.777 446.495 235.652 446.437 235.542 446.356C235.432 446.274 235.339 446.171 235.267 446.052C235.195 445.932 235.147 445.8 235.124 445.661C235.102 445.522 235.106 445.381 235.136 445.244C235.167 445.107 235.222 444.977 235.301 444.863C235.379 444.748 235.478 444.651 235.593 444.576C235.707 444.502 235.835 444.451 235.968 444.428C236.101 444.405 236.238 444.409 236.369 444.44L714.702 561.925C714.834 561.94 714.961 561.982 715.077 562.048C715.194 562.115 715.296 562.204 715.379 562.312C715.462 562.419 715.523 562.543 715.56 562.675C715.597 562.807 715.609 562.946 715.594 563.083C715.58 563.22 715.54 563.353 715.476 563.473C715.412 563.594 715.326 563.701 715.223 563.787C715.119 563.873 715.001 563.937 714.874 563.976C714.746 564.014 714.613 564.026 714.482 564.011V564.053Z" fill="#D1D3D4"/>
<path d="M590.031 136.155C590.031 136.155 607.896 114.812 616.096 111.265C624.297 107.718 634.141 123.971 633.199 127.685C632.257 131.399 597.951 152.575 597.951 152.575L590.031 136.155Z" fill="white"/>
<path d="M597.991 153.535H597.75C597.626 153.502 597.511 153.439 597.414 153.352C597.317 153.265 597.24 153.157 597.189 153.034L589.169 136.635C589.088 136.465 589.056 136.274 589.077 136.085C589.099 135.896 589.172 135.717 589.289 135.571C590.031 134.695 607.334 114.019 615.755 110.535C618.883 109.178 622.452 110.18 626.081 113.456C630.673 117.628 634.803 125.077 634.101 128.06C633.199 131.837 606.573 148.528 598.452 153.535C598.301 153.572 598.143 153.572 597.991 153.535ZM591.134 136.301L598.372 151.24C614.653 141.142 631.635 129.625 632.357 127.434C632.758 125.765 629.63 118.964 624.918 114.749C622.773 112.83 619.585 110.806 616.497 112.141C609.219 115.271 593.821 133.13 591.134 136.301Z" fill="#231F20"/>
<path d="M302.755 91.465C298.424 86.4785 293.592 81.2 287.216 80.1776C279.838 79.0093 272.239 83.954 265.161 81.7842C263.244 81.1134 261.417 80.1877 259.728 79.0301C256.279 76.9437 252.71 74.4401 250.785 70.6846C250.404 77.2646 250.404 83.8626 250.785 90.4427C256.018 93.5931 261.692 96.8688 267.728 96.2637C270.472 95.7981 273.16 95.0287 275.748 93.9687C280.896 92.2161 286.254 91.219 291.667 91.006C296.88 90.7974 302.915 91.778 305.702 96.4306C306.139 95.5763 306.366 94.6232 306.364 93.6557" fill="#C896DA"/>
<path d="M297.482 114.937L314.143 132.17C314.143 132.17 329.121 120.612 328.96 120.591C328.8 120.57 319.777 103.253 316.208 97.8285C312.64 92.4039 297.081 95.5335 295.657 99.9149C294.234 104.296 297.482 114.937 297.482 114.937Z" fill="white"/>
<path d="M314.143 133.13C314.024 133.135 313.905 133.113 313.795 133.066C313.684 133.02 313.584 132.949 313.502 132.859L296.84 115.604C296.737 115.501 296.661 115.372 296.62 115.229C296.479 114.791 293.271 104.421 294.795 99.7062C295.697 96.8478 300.57 94.9283 304.981 94.2607C307.126 93.9477 314.284 93.2592 317.011 97.286C319.737 101.313 324.429 110.222 327.396 115.73C328.519 117.816 329.502 119.631 329.722 119.902C329.814 120.008 329.876 120.138 329.903 120.278C330.083 121.029 330.083 121.029 314.745 132.796C314.593 132.983 314.377 133.103 314.143 133.13ZM298.284 114.353L314.224 130.898C319.116 127.121 325.812 121.947 327.777 120.466C327.376 119.756 326.755 118.609 325.772 116.752C322.805 111.265 317.873 102.147 315.467 98.4544C314.103 96.368 310.093 95.5334 305.261 96.2428C300.91 96.8896 297.081 98.7047 296.539 100.416C295.457 103.649 297.382 111.411 298.284 114.415V114.353Z" fill="#231F20"/>
<path d="M466.283 405.32C466.283 405.32 471.636 416.149 491.907 428.521C512.177 440.893 546.042 454.664 551.535 461.173C557.029 467.683 559.796 496.37 559.796 496.37C559.796 496.37 572.568 483.643 572.909 478.678C573.249 473.712 565.911 447.57 565.911 447.57L492.167 379.908L466.283 405.32Z" fill="white"/>
<path d="M559.796 497.33C559.69 497.35 559.581 497.35 559.475 497.33C559.315 497.267 559.175 497.16 559.069 497.021C558.963 496.881 558.895 496.714 558.874 496.537C558.874 496.245 555.987 468.058 550.854 461.841C547.946 458.356 535.596 452.243 522.543 445.796C512.157 440.664 500.388 434.843 491.466 429.397C471.195 417.046 465.701 406.28 465.401 405.821C465.313 405.636 465.285 405.426 465.322 405.223C465.358 405.02 465.456 404.835 465.601 404.694L491.526 379.178C491.696 379.017 491.917 378.927 492.147 378.927C492.377 378.927 492.599 379.017 492.769 379.178L566.513 446.86C566.648 446.972 566.747 447.125 566.793 447.299C567.094 448.383 574.192 473.67 573.831 478.74C573.47 483.81 561.801 495.724 560.418 497.059C560.251 497.228 560.029 497.325 559.796 497.33ZM467.446 405.529C468.909 407.949 475.305 417.317 492.368 427.707C501.23 433.111 512.959 438.911 523.305 444.023C537.119 450.845 549.069 456.75 552.217 460.568C556.969 466.285 559.736 487.691 560.498 494.347C564.508 490.174 571.766 481.974 572.007 478.636C572.267 474.755 567.194 455.561 565.109 448.133L492.187 381.264L467.446 405.529Z" fill="#231F20"/>
<path d="M561.741 443.731C561.3 444.899 569.861 469.811 568.217 476.717C566.573 483.623 559.335 492.323 559.335 492.323C559.335 492.323 554.964 502.254 558.934 503.569C562.904 504.883 583.114 479.513 581.871 474.839C580.628 470.166 574.713 460.881 574.713 460.881L586.202 468.517L587.866 463.948C587.866 463.948 578.563 453.057 572.889 449.343C569.376 447.063 565.639 445.182 561.741 443.731Z" fill="#231F20"/>
<path d="M559.254 504.549C559.056 504.55 558.859 504.515 558.673 504.445C558.252 504.314 557.864 504.087 557.538 503.78C557.211 503.473 556.955 503.095 556.788 502.671C555.365 499.333 558.192 492.678 558.513 491.947C558.547 491.864 558.595 491.786 558.653 491.718C558.653 491.718 565.771 483.101 567.355 476.487C568.417 472.001 564.748 458.774 562.563 450.866C560.878 444.816 560.698 443.981 560.898 443.397C560.984 443.179 561.144 443.003 561.348 442.903C561.553 442.802 561.786 442.785 562.001 442.855C565.974 444.313 569.78 446.223 573.35 448.55C579.064 452.306 588.146 462.884 588.527 463.322C588.634 463.448 588.706 463.603 588.734 463.768C588.762 463.934 588.746 464.104 588.688 464.261L587.024 468.851C586.976 468.978 586.902 469.093 586.807 469.187C586.711 469.281 586.597 469.351 586.472 469.393C586.347 469.435 586.215 469.447 586.085 469.429C585.955 469.411 585.83 469.364 585.72 469.289L577.58 463.885C579.674 467.25 581.402 470.847 582.733 474.609C583.836 478.782 572.568 493.387 566.292 499.646C562.282 503.715 560.337 504.549 559.254 504.549ZM560.076 492.824C559.254 494.743 557.49 499.771 558.392 501.92C558.462 502.103 558.57 502.268 558.709 502.401C558.848 502.535 559.014 502.634 559.194 502.692C559.515 502.817 561.199 502.233 565.069 498.353C572.748 490.654 581.69 477.614 581.109 475.089C579.906 470.624 574.111 461.486 574.051 461.382C573.939 461.205 573.888 460.993 573.908 460.782C573.928 460.572 574.018 460.374 574.162 460.224C574.306 460.075 574.496 459.981 574.698 459.96C574.901 459.939 575.105 459.992 575.274 460.109L585.841 467.14L586.923 464.136C585.179 462.049 577.38 453.328 572.487 450.115C569.455 448.153 566.253 446.491 562.924 445.15C563.244 446.422 563.786 448.404 564.327 450.366C566.713 458.962 570.342 471.96 569.139 476.946C567.415 483.644 560.939 491.843 560.076 492.824Z" fill="#231F20"/>
<path d="M383.316 418.819C383.316 418.819 416.258 524.704 416.258 528.814C416.258 532.924 399.797 555.937 399.797 555.937C399.797 555.937 419.847 557.585 426.123 551.43C432.398 545.275 439.135 526.394 439.135 526.394L422.574 396.704L383.316 418.819Z" fill="white"/>
<path d="M405.672 557.043C402.383 557.043 399.998 556.855 399.657 556.834C399.494 556.817 399.337 556.756 399.204 556.657C399.07 556.559 398.964 556.425 398.895 556.271C398.826 556.116 398.8 555.945 398.817 555.776C398.835 555.607 398.896 555.446 398.995 555.311C405.291 546.527 415.276 531.547 415.276 528.793C415.276 525.622 395.566 461.465 382.394 419.091C382.327 418.879 382.334 418.649 382.415 418.443C382.496 418.236 382.645 418.067 382.835 417.964L422.133 395.869C422.264 395.803 422.408 395.768 422.554 395.768C422.7 395.768 422.844 395.803 422.975 395.869C423.11 395.937 423.227 396.04 423.315 396.168C423.402 396.295 423.458 396.444 423.476 396.599L440.037 526.289C440.077 526.439 440.077 526.598 440.037 526.748C439.777 527.52 433.2 545.901 426.804 552.139C422.393 556.291 412.228 557.043 405.672 557.043ZM401.541 554.956C406.414 555.186 420.569 555.394 425.481 550.596C431.215 545.025 437.411 528.271 438.193 526.143L421.832 398.081L384.419 419.195C388.749 433.09 417.16 524.683 417.16 528.73C417.16 532.778 405.712 549.135 401.541 555.019V554.956Z" fill="#231F20"/>
<path d="M438.734 523.139C438.734 523.139 428.027 548.739 422.574 551.91C417.12 555.082 401.18 553.851 401.18 553.851C401.18 553.851 390.414 558.482 392.399 562.196C394.383 565.91 423.155 566.098 429.671 561.382C433.851 558.006 437 553.44 438.734 548.238L440.117 562.613L445.431 562.801C445.431 562.801 448.799 542.292 447.015 536.137C445.23 529.982 438.734 523.139 438.734 523.139Z" fill="#231F20"/>
<path d="M408.418 565.91C404.094 565.994 399.774 565.609 395.526 564.762C393.341 564.241 392.098 563.573 391.516 562.676C391.318 562.307 391.2 561.896 391.172 561.474C391.145 561.052 391.207 560.629 391.356 560.235C392.539 556.688 399.897 553.412 400.739 553.058C400.87 553.018 401.009 553.018 401.14 553.058C401.301 553.058 416.86 554.247 422.032 551.243C426.303 548.76 434.884 529.941 437.812 522.889C437.873 522.75 437.965 522.628 438.08 522.534C438.195 522.44 438.33 522.375 438.473 522.346C438.615 522.322 438.76 522.334 438.897 522.381C439.033 522.428 439.156 522.509 439.255 522.617C439.536 522.889 445.952 529.669 447.757 535.97C449.561 542.271 446.353 562.217 446.213 563.093C446.174 563.31 446.062 563.506 445.896 563.644C445.73 563.782 445.523 563.853 445.31 563.844L439.977 563.657C439.763 563.647 439.56 563.558 439.405 563.404C439.25 563.251 439.154 563.044 439.135 562.822L438.092 552.077C436.258 556.102 433.505 559.597 430.072 562.259C426.624 564.742 417.04 565.91 408.418 565.91ZM401.321 554.852C398.434 556.125 393.802 558.795 393.12 560.861C393.055 561.008 393.022 561.168 393.022 561.33C393.022 561.492 393.055 561.652 393.12 561.8C393.12 561.8 393.481 562.384 395.887 562.968C403.787 564.888 423.957 564.429 429.11 560.652C433.128 557.396 436.162 553.007 437.852 548.009C437.911 547.804 438.037 547.627 438.208 547.508C438.379 547.39 438.584 547.337 438.789 547.359C438.993 547.381 439.184 547.477 439.328 547.63C439.471 547.783 439.559 547.983 439.576 548.196L440.879 561.758L444.649 561.904C445.23 558.086 447.636 541.645 446.132 536.45C444.487 532.128 442.049 528.181 438.955 524.829C436.689 530.149 427.967 549.866 422.915 552.787C417.641 555.895 403.326 554.977 401.321 554.852Z" fill="#231F20"/>
<path d="M497.922 181.117C498.94 184.261 499.299 187.596 498.974 190.896C498.649 194.196 497.647 197.386 496.037 200.249C490.141 211 480.693 219.156 469.451 223.2C461.159 226.257 452.308 227.313 443.566 226.287C432.073 224.747 421.468 219.044 413.611 210.18C408.184 204.349 404.844 196.756 404.148 188.67C403.767 180.616 407.416 172.146 414.173 168.265C417.401 166.429 421.571 165.24 422.774 161.609C423.777 158.563 422.072 155.35 421.892 152.075C421.651 147.693 424.258 143.729 427.205 140.495C434.062 133.047 441.721 129.291 451.967 130.731C461.33 132.024 469.31 138.492 475.626 145.461C478.413 148.528 481.3 151.72 482.283 155.893C482.764 157.979 482.744 160.065 483.285 161.943C485.15 168.953 492.789 172.375 496.558 178.488C497.088 179.32 497.545 180.2 497.922 181.117Z" fill="white"/>
<path d="M449.942 227.685C447.77 227.694 445.6 227.555 443.446 227.268C431.761 225.62 421 219.766 413.03 210.723C407.448 204.729 404.015 196.921 403.306 188.607C403.029 184.399 403.864 180.191 405.719 176.44C407.574 172.689 410.38 169.538 413.832 167.326C414.574 166.909 415.336 166.533 416.118 166.137C418.744 164.843 421.19 163.633 422.012 161.213C422.41 159.382 422.299 157.472 421.692 155.705C421.389 154.501 421.188 153.273 421.09 152.033C420.87 148.11 422.734 143.959 426.644 139.723C434.223 131.503 442.363 128.311 452.188 129.667C460.328 130.814 468.228 135.717 476.408 144.71C478.974 147.547 482.202 151.094 483.265 155.517C483.482 156.508 483.643 157.511 483.746 158.522C483.853 159.541 484.027 160.552 484.268 161.547C485.29 165.386 488.278 168.119 491.285 170.998C493.621 172.976 495.686 175.279 497.42 177.842C497.984 178.768 498.468 179.746 498.864 180.762C499.924 184.042 500.294 187.521 499.948 190.963C499.602 194.404 498.549 197.728 496.859 200.708C490.891 211.71 481.253 220.054 469.771 224.159C463.389 226.447 456.692 227.638 449.942 227.685ZM447.736 131.273C440.278 131.273 434.022 134.382 427.887 141.038C424.338 144.877 422.634 148.549 422.834 151.929C422.931 153.056 423.118 154.173 423.396 155.267C424.103 157.376 424.193 159.655 423.656 161.818C422.594 165.01 419.646 166.471 416.839 167.869C416.078 168.244 415.336 168.599 414.634 168.995C411.464 171.015 408.889 173.903 407.191 177.344C405.494 180.785 404.739 184.645 405.01 188.503C405.703 196.35 408.958 203.713 414.233 209.367C421.94 218.087 432.341 223.72 443.626 225.286C452.245 226.331 460.979 225.325 469.17 222.344C480.189 218.323 489.444 210.3 495.235 199.749C496.788 197.012 497.757 193.959 498.075 190.798C498.393 187.638 498.054 184.442 497.08 181.43C496.729 180.522 496.299 179.649 495.796 178.822C494.143 176.413 492.187 174.245 489.982 172.375C486.834 169.433 483.586 166.387 482.423 161.943C482.15 160.855 481.962 159.746 481.862 158.626C481.759 157.72 481.605 156.821 481.4 155.934C480.458 151.991 477.551 148.799 474.984 145.962C467.145 137.324 459.586 132.588 451.867 131.524C450.497 131.34 449.117 131.256 447.736 131.273Z" fill="#231F20"/>
<path d="M480.478 196.39L588.427 122.218L609.62 161.088L502.333 243.125C502.333 243.125 501.19 263.05 496.318 313.478C493.41 343.772 562.483 352.097 594.923 404.465C594.923 404.465 489.16 466.452 416.057 449.448C350.374 434.175 357.11 437.409 346.023 431.651L398.995 310.327C398.995 310.327 402.002 245.816 400.799 238.034L297.482 137.157L329.682 104.672L425.701 192.446L480.478 196.39Z" fill="#C896DA"/>
<path d="M438.173 250.239C438.173 250.239 435.366 205.778 438.514 197.433C439.277 195.074 440.483 192.897 442.062 191.027C444.403 188.947 447.209 187.512 450.223 186.855C453.751 185.791 457.661 184.893 461.03 186.479C462.552 187.304 463.867 188.489 464.869 189.938C465.872 191.387 466.535 193.061 466.804 194.825C467.322 198.359 467.186 201.963 466.403 205.444C463.756 220.049 438.173 250.239 438.173 250.239Z" fill="#231F20"/>
<path d="M438.173 251.157H437.892C437.725 251.099 437.579 250.991 437.472 250.846C437.365 250.701 437.301 250.526 437.291 250.343C437.17 248.528 434.504 205.59 437.692 197.141C438.474 194.235 440.053 191.63 442.236 189.644C444.419 187.658 447.111 186.377 449.982 185.958C453.812 184.81 457.842 183.871 461.391 185.603C463.041 186.485 464.469 187.758 465.559 189.32C466.649 190.882 467.371 192.689 467.666 194.595C468.217 198.246 468.081 201.973 467.265 205.57C464.619 220.341 439.877 249.655 438.834 250.886C438.748 250.976 438.645 251.047 438.531 251.094C438.417 251.141 438.295 251.162 438.173 251.157ZM456.899 186.479C454.71 186.566 452.544 186.974 450.463 187.689C447.854 188.022 445.4 189.159 443.417 190.955C441.434 192.751 440.012 195.123 439.336 197.766C436.689 204.777 438.393 238.806 438.915 247.84C444.308 241.289 463.315 217.399 465.521 205.111C466.28 201.747 466.423 198.264 465.942 194.846C465.694 193.234 465.086 191.705 464.166 190.382C463.247 189.06 462.042 187.98 460.649 187.23C459.466 186.7 458.187 186.444 456.899 186.479Z" fill="#231F20"/>
<path d="M467.586 212.267C468.433 216.675 468.816 221.167 468.729 225.661C468.784 241.847 469.936 258.008 472.177 274.024C474.523 290.089 477.912 307.928 487.315 321.322C508.688 351.763 549.47 345.191 549.47 345.191L562.844 304.402C562.844 304.402 536.558 312.372 511.696 298.435C506.987 295.461 503.141 291.214 500.568 286.146C491.606 270.352 488.278 251.011 485.07 233.214C484.268 228.77 482.323 211.265 480.157 206.926C477.969 202.582 474.804 198.853 470.933 196.056C467.061 193.259 462.598 191.476 457.922 190.861C457.703 190.807 457.473 190.844 457.28 190.965C457.193 191.05 457.124 191.153 457.079 191.269C457.034 191.384 457.014 191.508 457.02 191.632L456.318 198.017C459.192 199.221 461.73 201.156 463.699 203.646C465.668 206.136 467.004 209.1 467.586 212.267Z" fill="white"/>
<path d="M540.307 346.714C526.814 346.714 501.771 343.501 486.573 321.886C477.31 308.7 473.741 291.153 471.275 274.17C469.017 258.113 467.858 241.91 467.806 225.682C467.898 221.252 467.528 216.824 466.704 212.476C466.15 209.453 464.873 206.624 462.991 204.25C461.11 201.876 458.683 200.034 455.937 198.893C455.759 198.804 455.611 198.66 455.514 198.481C455.418 198.302 455.376 198.096 455.396 197.892L456.097 191.633C456.112 191.382 456.175 191.136 456.281 190.91C456.388 190.685 456.537 190.483 456.719 190.318C456.907 190.182 457.118 190.086 457.342 190.036C457.566 189.986 457.797 189.982 458.022 190.026C462.851 190.64 467.464 192.469 471.46 195.356C475.457 198.242 478.717 202.099 480.959 206.592C482.664 209.972 484.167 220.696 485.17 227.769C485.491 230.106 485.771 232.046 485.972 233.152L486.232 234.591C489.42 252.263 492.709 270.54 501.37 285.77C503.828 290.709 507.556 294.84 512.137 297.705C536.377 311.287 562.262 303.672 562.583 303.588C562.745 303.536 562.919 303.534 563.082 303.582C563.246 303.63 563.393 303.727 563.505 303.859C563.622 303.983 563.704 304.139 563.739 304.309C563.775 304.479 563.763 304.656 563.706 304.819L550.332 345.608C550.277 345.77 550.181 345.914 550.054 346.024C549.927 346.134 549.774 346.207 549.61 346.234C546.524 346.617 543.415 346.778 540.307 346.714ZM468.488 212.037C469.343 216.522 469.726 221.09 469.631 225.662C469.719 241.808 470.905 257.927 473.18 273.899C475.626 290.59 479.195 307.907 488.157 320.759C507.646 348.508 543.996 344.961 548.889 344.335L561.4 305.737C555.184 307.198 532.548 311.224 511.275 299.269C506.435 296.252 502.472 291.926 499.806 286.751C490.984 271.228 487.656 252.785 484.448 234.946L484.187 233.506C483.987 232.38 483.706 230.419 483.385 228.061C482.463 221.51 480.919 210.577 479.375 207.468C477.25 203.293 474.199 199.705 470.475 197.002C466.751 194.299 462.461 192.559 457.962 191.925L457.34 197.537C460.204 198.844 462.719 200.857 464.668 203.401C466.618 205.945 467.942 208.945 468.528 212.142L468.488 212.037Z" fill="#231F20"/>
<path d="M442.062 191.027C442.062 191.027 353.842 174.336 294.534 295.764L326.815 321.594C326.815 321.594 348.87 202.21 442.022 203.212L442.062 191.027Z" fill="white"/>
<path d="M326.815 322.553C326.61 322.557 326.41 322.483 326.253 322.345L293.933 296.536C293.76 296.403 293.639 296.21 293.592 295.992C293.544 295.774 293.572 295.545 293.672 295.347C310.655 260.588 341.171 215.292 390.173 196.995C419.546 186.02 441.962 190.047 442.183 190.089C442.395 190.128 442.588 190.243 442.727 190.414C442.866 190.586 442.943 190.803 442.944 191.027V203.212C442.943 203.337 442.917 203.461 442.869 203.575C442.821 203.69 442.751 203.793 442.664 203.88C442.583 203.972 442.484 204.044 442.373 204.091C442.262 204.138 442.142 204.158 442.022 204.151H440.879C350.434 204.151 327.938 320.592 327.717 321.781C327.684 321.941 327.614 322.089 327.513 322.213C327.411 322.336 327.282 322.432 327.136 322.491C327.034 322.534 326.925 322.555 326.815 322.553ZM295.657 295.43L326.213 319.862C330.835 299.325 338.405 279.631 348.669 261.443C364.328 234.32 392.98 202.148 440.899 202.148H441.1V191.716C437.09 191.153 416.619 188.983 390.694 198.685C364.128 208.783 326.093 233.652 295.697 295.493L295.657 295.43Z" fill="#231F20"/>
<path d="M441.1 186.354C439.095 196.243 431.737 217.212 450.684 214.061C452.665 213.625 454.571 212.88 456.338 211.85C467.766 205.903 468.689 198.893 470.172 186.604C470.814 181.263 472.578 156.435 472.578 156.435C472.578 156.435 447.295 136.427 447.295 136.406C447.155 135.947 440.037 141.121 437.832 144.021C430.774 153.306 431.316 165.886 431.396 177.153C431.496 186.709 441.1 186.354 441.1 186.354Z" fill="white"/>
<path d="M447.115 215.313C445.737 215.421 444.353 215.224 443.053 214.735C441.754 214.246 440.569 213.476 439.576 212.476C435.225 207.573 437.571 197.516 439.275 190.172C439.516 189.15 439.736 188.086 439.937 187.272C437.415 187.103 435.017 186.068 433.12 184.33C432.22 183.392 431.517 182.27 431.054 181.034C430.592 179.799 430.38 178.478 430.433 177.153V175.254C430.333 164.572 430.233 152.45 437.09 143.437C438.834 141.142 446.052 135.091 447.416 135.446C447.572 135.472 447.719 135.544 447.837 135.655L473.1 155.684C473.223 155.775 473.321 155.898 473.385 156.041C473.448 156.183 473.474 156.341 473.461 156.498C473.461 157.52 471.696 181.534 471.055 186.709C469.591 199.039 468.689 206.488 456.739 212.705C454.86 213.789 452.831 214.563 450.724 215C449.53 215.196 448.324 215.301 447.115 215.313ZM441.1 185.394C441.235 185.398 441.368 185.432 441.489 185.494C441.61 185.556 441.717 185.645 441.803 185.754C441.888 185.862 441.951 185.989 441.985 186.125C442.019 186.261 442.025 186.403 442.002 186.542C441.762 187.752 441.441 189.129 441.1 190.715C439.476 197.641 437.27 207.134 440.959 211.286C442.764 213.373 445.992 213.978 450.523 213.206C452.42 212.805 454.246 212.101 455.937 211.119C467.004 205.361 467.806 198.601 469.27 186.604C469.852 181.785 471.375 160.587 471.616 157.019C454.152 143.166 448.819 138.951 447.175 137.553C444.003 139.538 441.103 141.959 438.554 144.751C432.077 153.243 432.198 164.489 432.298 175.359V177.257C432.255 178.327 432.425 179.395 432.798 180.393C433.17 181.391 433.737 182.298 434.463 183.058C436.333 184.642 438.69 185.471 441.1 185.394Z" fill="#231F20"/>
<path d="M439.416 195.951C444.016 196.995 448.825 196.158 452.849 193.615C454.496 192.563 455.902 191.151 456.968 189.475C458.035 187.799 458.737 185.901 459.025 183.913C459.025 183.913 449.721 187.94 441.14 186.354L439.416 195.951Z" fill="#231F20"/>
<path d="M443.546 197.308C442.091 197.31 440.64 197.157 439.215 196.849C438.995 196.794 438.803 196.653 438.68 196.454C438.556 196.256 438.511 196.016 438.554 195.784L440.278 186.187C440.297 186.068 440.339 185.955 440.401 185.853C440.464 185.752 440.545 185.664 440.64 185.596C440.736 185.528 440.843 185.481 440.957 185.457C441.07 185.433 441.187 185.433 441.3 185.457C449.521 186.959 458.604 183.099 458.684 183.057C458.815 182.981 458.964 182.94 459.115 182.94C459.266 182.94 459.414 182.981 459.546 183.057C459.665 183.148 459.76 183.268 459.823 183.406C459.886 183.545 459.915 183.697 459.907 183.85C459.621 185.985 458.885 188.027 457.752 189.831C456.618 191.634 455.115 193.154 453.35 194.282C450.452 196.3 447.033 197.355 443.546 197.308ZM440.438 195.221C444.545 195.968 448.773 195.129 452.328 192.864C454.961 191.102 456.918 188.437 457.862 185.332C452.73 187.257 447.251 187.969 441.822 187.418L440.438 195.221Z" fill="#231F20"/>
<path d="M450.163 172.166C448.839 172.166 445.711 171.958 444.589 170.08C443.466 168.202 448.318 162.131 451.426 158.918C451.591 158.747 451.814 158.651 452.047 158.651C452.28 158.651 452.504 158.747 452.669 158.918C452.834 159.093 452.927 159.329 452.927 159.575C452.927 159.821 452.834 160.057 452.669 160.232C449 164.03 445.952 168.202 446.132 169.162C446.754 170.226 449.441 170.435 450.624 170.351C450.858 170.345 451.087 170.432 451.262 170.595C451.437 170.758 451.546 170.984 451.566 171.228C451.577 171.473 451.495 171.714 451.338 171.897C451.18 172.08 450.96 172.192 450.724 172.208L450.163 172.166Z" fill="#231F20"/>
<path d="M448.879 179.552C443.566 179.552 439.977 173.794 439.837 173.544C439.774 173.442 439.73 173.329 439.709 173.21C439.688 173.091 439.69 172.969 439.714 172.851C439.738 172.733 439.784 172.621 439.85 172.521C439.916 172.422 440 172.337 440.097 172.271C440.195 172.205 440.304 172.16 440.418 172.138C440.532 172.116 440.649 172.118 440.763 172.143C440.876 172.168 440.984 172.216 441.08 172.285C441.175 172.353 441.257 172.441 441.32 172.542C441.32 172.542 444.548 177.695 448.879 177.695C451.766 177.695 454.594 175.484 457.32 171.102C457.451 170.902 457.651 170.761 457.879 170.711C458.107 170.66 458.345 170.703 458.543 170.831C458.644 170.897 458.73 170.983 458.798 171.084C458.866 171.185 458.913 171.3 458.938 171.42C458.962 171.541 458.963 171.666 458.94 171.787C458.917 171.908 458.871 172.023 458.804 172.125C455.736 177.049 452.408 179.552 448.879 179.552Z" fill="#231F20"/>
<path d="M462.192 157.04C462.038 157.04 461.886 156.997 461.753 156.917C461.619 156.836 461.508 156.72 461.431 156.581C461.03 155.872 459.606 153.827 458.363 153.827C457.802 153.827 457.24 154.328 456.699 155.288C456.564 155.467 456.372 155.589 456.158 155.631C455.943 155.674 455.721 155.635 455.533 155.52C455.344 155.405 455.202 155.223 455.133 155.008C455.063 154.793 455.071 154.558 455.155 154.349C455.433 153.69 455.879 153.122 456.444 152.707C457.01 152.291 457.673 152.044 458.363 151.991C460.849 151.991 462.754 155.288 462.974 155.663C463.091 155.874 463.123 156.123 463.062 156.358C463.002 156.593 462.855 156.793 462.654 156.915C462.513 156.998 462.354 157.041 462.192 157.04Z" fill="#231F20"/>
<path d="M441.1 155.037C440.939 155.032 440.781 154.99 440.639 154.912C440.442 154.779 440.303 154.572 440.251 154.335C440.199 154.097 440.237 153.848 440.358 153.639C440.82 152.819 441.437 152.105 442.171 151.538C442.904 150.972 443.74 150.565 444.629 150.343C446.934 150.009 448.017 152.554 448.258 153.931C448.281 154.049 448.281 154.171 448.258 154.289C448.235 154.407 448.189 154.519 448.124 154.618C448.058 154.718 447.974 154.802 447.877 154.867C447.779 154.932 447.67 154.976 447.556 154.996C447.325 155.039 447.087 154.987 446.892 154.85C446.698 154.714 446.562 154.504 446.513 154.265C446.513 154.265 446.072 152.054 444.849 152.179C443.589 152.563 442.519 153.437 441.862 154.62C441.781 154.753 441.668 154.861 441.534 154.935C441.401 155.008 441.251 155.043 441.1 155.037Z" fill="#231F20"/>
<path d="M401.521 304.757C401.283 304.757 401.055 304.661 400.883 304.49C400.711 304.319 400.609 304.086 400.599 303.838L398.213 226.872C398.207 226.621 398.297 226.377 398.462 226.194C398.627 226.011 398.854 225.902 399.095 225.891C399.336 225.885 399.57 225.978 399.746 226.15C399.922 226.321 400.027 226.558 400.037 226.809L402.423 303.88C402.429 304.131 402.34 304.375 402.175 304.558C402.01 304.741 401.782 304.85 401.541 304.861L401.521 304.757Z" fill="#231F20"/>
<path d="M435.285 116.293L431.275 135.676C431.275 135.676 437.752 131.378 451.987 132.275C469.731 133.422 482.603 154.224 482.603 154.224L485.912 126.579C485.912 126.579 463.756 92.8629 435.285 116.293Z" fill="#231F20"/>
<path d="M482.664 155.037C482.516 155.04 482.37 155.003 482.24 154.929C482.11 154.856 482.001 154.75 481.922 154.62C481.801 154.411 469.07 134.194 451.987 133.088C438.193 132.212 431.937 136.302 431.817 136.343C431.67 136.44 431.499 136.491 431.326 136.491C431.152 136.491 430.981 136.44 430.834 136.343C430.687 136.241 430.573 136.094 430.508 135.923C430.444 135.751 430.432 135.563 430.473 135.384L434.483 116.022C434.538 115.813 434.649 115.624 434.804 115.479C443.025 108.761 451.546 106.028 460.107 107.384C475.987 109.888 486.353 125.327 486.774 125.974C486.894 126.158 486.95 126.378 486.934 126.6L483.626 154.265C483.602 154.451 483.523 154.625 483.401 154.763C483.28 154.901 483.12 154.996 482.944 155.037H482.664ZM448.137 131.127C449.381 131.127 450.717 131.169 452.147 131.252C467.025 132.212 478.353 146.316 482.122 151.636L485.05 126.725C483.586 124.639 473.741 111.39 459.767 109.178C451.747 107.927 443.727 110.451 436.067 116.71L432.579 133.902C437.534 131.901 442.825 130.957 448.137 131.127Z" fill="#231F20"/>
<path d="M438.012 133.276C438.012 133.276 411.727 120.987 411.386 119.819C410.845 117.899 452.408 96.8687 456.318 95.9507C460.228 95.0327 509.27 127.831 509.691 128.999C510.112 130.167 511.195 131.711 508.929 133.422C507.425 134.57 476.729 143.708 476.729 143.708L459.145 128.436L438.012 133.276Z" fill="#231F20"/>
<path d="M476.729 144.626C476.525 144.62 476.328 144.547 476.167 144.418L458.824 129.437L438.193 134.173C438.017 134.235 437.827 134.235 437.651 134.173C411.005 121.655 410.684 120.612 410.544 120.153C410.5 119.832 410.548 119.505 410.684 119.214C412.689 115.751 453.491 95.6795 456.137 95.1161C456.859 94.9492 459.045 94.5111 484.749 111.014C485.009 111.16 509.911 127.226 510.513 128.707L510.653 129.062C510.919 129.478 511.099 129.947 511.182 130.439C511.265 130.932 511.25 131.436 511.137 131.922C511.024 132.408 510.816 132.864 510.526 133.262C510.235 133.66 509.869 133.992 509.45 134.236C507.886 135.425 482.122 143.124 476.969 144.668L476.729 144.626ZM459.145 127.518C459.352 127.521 459.552 127.603 459.706 127.747L477.009 142.686C488.698 139.202 507.205 133.527 508.508 132.671C509.811 131.816 509.611 130.856 509.129 129.771V129.5C506.403 126.85 460.909 96.8687 456.699 96.8687C453.13 97.5155 417.24 115.751 412.629 119.673C415.596 121.592 429.29 128.185 438.112 132.316L458.864 127.539L459.145 127.518Z" fill="#231F20"/>
<path d="M304.499 73.5221C304.499 73.5221 305.361 91.0269 298.645 99.0177C291.928 107.009 269.953 121.78 269.953 121.78L283.707 137.157C283.707 137.157 307.767 114.77 312.86 101.688C316.081 93.2191 318.25 84.3569 319.316 75.3164C319.316 75.3164 311.557 66.2197 304.499 73.5221Z" fill="white"/>
<path d="M283.707 138.033C283.579 138.033 283.452 138.005 283.335 137.951C283.217 137.898 283.112 137.819 283.026 137.72L269.291 122.427C269.198 122.325 269.128 122.203 269.087 122.069C269.045 121.936 269.033 121.794 269.051 121.655C269.071 121.516 269.118 121.383 269.191 121.264C269.263 121.145 269.359 121.044 269.472 120.966C269.672 120.82 291.406 106.195 297.963 98.3918C304.519 90.5887 303.597 73.7306 303.577 73.5637C303.579 73.2924 303.679 73.0318 303.858 72.8335C304.732 71.8212 305.807 71.0176 307.007 70.4774C308.208 69.9373 309.507 69.6734 310.815 69.7039C314.342 70.1089 317.606 71.8371 319.998 74.5652C320.086 74.6614 320.154 74.7766 320.195 74.9027C320.237 75.0288 320.252 75.1628 320.238 75.2954C319.134 84.4161 316.945 93.3586 313.722 101.918C308.549 115.041 285.311 136.802 284.309 137.72C284.235 137.813 284.143 137.888 284.039 137.942C283.936 137.996 283.823 138.027 283.707 138.033ZM271.377 121.947L283.747 135.738C287.657 132.024 307.487 112.788 312.018 101.271C315.133 93.0122 317.261 84.3864 318.354 75.5875C316.345 73.3889 313.667 71.981 310.775 71.6025C309.785 71.6018 308.804 71.8042 307.889 72.1979C306.974 72.5917 306.142 73.1693 305.441 73.8976C305.441 76.7559 305.702 92.07 299.426 99.6436C293.311 106.8 275.667 119.026 271.377 121.947Z" fill="#231F20"/>
<path d="M304.379 117.086C304.379 117.086 299.126 106.153 291.948 105.027C291.948 105.027 300.249 98.517 300.991 91.1312C312.539 87.2296 313.341 94.1773 313.341 99.4767C313.341 99.435 308.77 112.892 304.379 117.086Z" fill="#C896DA"/>
<path d="M267.527 125.953C266.745 129.396 269.251 133.756 271.537 135.863C275.547 139.556 285.332 140.787 285.973 132.963C286.093 130.924 285.697 128.887 284.825 127.057C283.952 125.226 282.634 123.666 281.001 122.531C276.69 119.569 269.853 119.736 267.708 125.244C267.636 125.477 267.576 125.714 267.527 125.953Z" fill="white"/>
<path d="M279.417 139.702C276.348 139.68 273.375 138.585 270.976 136.594C268.249 134.09 265.783 129.437 266.645 125.724C266.702 125.429 266.789 125.143 266.905 124.868C267.332 123.728 268.003 122.704 268.869 121.876C269.734 121.048 270.77 120.437 271.898 120.09C273.524 119.641 275.222 119.553 276.884 119.829C278.545 120.106 280.132 120.742 281.542 121.697C283.303 122.93 284.725 124.619 285.667 126.599C286.61 128.578 287.04 130.779 286.915 132.984C286.887 134.284 286.491 135.547 285.778 136.616C285.065 137.684 284.066 138.511 282.905 138.993C281.798 139.464 280.613 139.705 279.417 139.702ZM268.409 126.162C267.768 129.02 269.873 133.047 272.179 135.154C273.564 136.316 275.2 137.113 276.945 137.477C278.691 137.84 280.495 137.759 282.204 137.24C283.028 136.896 283.738 136.311 284.251 135.555C284.763 134.8 285.055 133.908 285.091 132.984C285.209 131.112 284.85 129.241 284.051 127.56C283.252 125.878 282.041 124.446 280.539 123.408C279.369 122.608 278.051 122.073 276.67 121.835C275.288 121.598 273.875 121.665 272.519 122.031C271.666 122.289 270.878 122.741 270.212 123.354C269.546 123.968 269.02 124.727 268.67 125.577L268.489 126.162H268.409Z" fill="#231F20"/>
<path d="M280.84 138.868C280.615 138.86 280.399 138.767 280.235 138.606C280.071 138.445 279.97 138.226 279.95 137.993C279.93 137.759 279.994 137.525 280.128 137.337C280.263 137.148 280.459 137.017 280.68 136.969C281.357 136.758 281.951 136.326 282.374 135.736C282.797 135.146 283.025 134.429 283.026 133.694C282.928 131.999 282.269 130.391 281.161 129.145C280.053 127.752 278.69 126.603 277.151 125.765C276.446 125.346 275.656 125.103 274.845 125.056C274.524 125.038 274.203 125.1 273.91 125.238C273.617 125.376 273.36 125.586 273.161 125.849C272.952 126.264 272.822 126.717 272.78 127.184C272.515 128.095 272.515 129.068 272.78 129.98C273.354 130.927 274.204 131.658 275.206 132.066C276.429 132.734 276.93 132.692 277.111 132.609C277.291 132.525 277.452 132.15 277.512 131.857C277.613 131.189 277.515 130.505 277.231 129.896C276.946 129.04 276.348 128.335 275.567 127.935C275.342 127.842 275.162 127.661 275.064 127.431C274.967 127.2 274.96 126.939 275.046 126.704C275.086 126.587 275.148 126.48 275.229 126.388C275.309 126.297 275.406 126.222 275.514 126.17C275.622 126.118 275.739 126.088 275.859 126.083C275.978 126.078 276.097 126.098 276.209 126.141C276.838 126.424 277.404 126.839 277.873 127.359C278.342 127.88 278.704 128.495 278.935 129.166C279.359 130.147 279.485 131.239 279.296 132.296C279.234 132.736 279.073 133.154 278.825 133.517C278.578 133.879 278.252 134.176 277.873 134.382C277.28 134.561 276.656 134.602 276.046 134.501C275.436 134.4 274.854 134.16 274.344 133.798C273.014 133.205 271.898 132.19 271.156 130.898C270.677 129.643 270.593 128.262 270.915 126.954C270.979 126.218 271.198 125.506 271.557 124.868C271.931 124.343 272.417 123.917 272.978 123.623C273.538 123.33 274.158 123.177 274.785 123.178C275.883 123.239 276.953 123.56 277.913 124.117C279.699 125.053 281.282 126.359 282.565 127.956C283.983 129.542 284.795 131.612 284.85 133.777C284.858 134.956 284.482 136.104 283.783 137.032C283.084 137.961 282.103 138.615 281.001 138.889L280.84 138.868Z" fill="#231F20"/>
<path d="M320.66 105.402C320.419 104.797 315.246 92.6751 312.64 92.4247C310.033 92.1743 300.61 95.283 301.893 96.4097C303.176 97.5363 309.913 97.8284 309.913 97.8284C308.743 99.7776 308.123 102.029 308.123 104.328C308.123 106.626 308.743 108.878 309.913 110.827" fill="white"/>
<path d="M309.813 111.786C309.661 111.782 309.513 111.741 309.38 111.664C309.247 111.588 309.134 111.48 309.051 111.348C307.886 109.483 307.207 107.336 307.08 105.115C306.954 102.895 307.384 100.679 308.329 98.6838C306.063 98.5169 302.434 98.0996 301.291 97.1399C301.081 96.9749 300.931 96.7406 300.865 96.4753C300.8 96.21 300.823 95.9294 300.93 95.6794C301.712 93.593 310.414 91.298 312.7 91.5067C316.148 91.8405 321.462 104.964 321.502 105.089C321.595 105.324 321.594 105.588 321.5 105.823C321.406 106.058 321.226 106.244 321 106.341C320.771 106.431 320.518 106.424 320.293 106.323C320.069 106.222 319.891 106.034 319.797 105.798C318.614 102.69 314.123 93.5513 312.539 93.4053C309.306 93.7121 306.15 94.609 303.216 96.055C305.397 96.5597 307.619 96.8462 309.853 96.9104C310.016 96.9176 310.174 96.9697 310.311 97.0613C310.449 97.1529 310.56 97.2808 310.635 97.432C310.714 97.5786 310.755 97.7438 310.755 97.9119C310.755 98.0799 310.714 98.2452 310.635 98.3917C309.552 100.182 308.978 102.254 308.978 104.369C308.978 106.484 309.552 108.556 310.635 110.347C310.702 110.45 310.748 110.567 310.771 110.69C310.795 110.812 310.794 110.939 310.77 111.061C310.746 111.183 310.698 111.3 310.63 111.403C310.562 111.506 310.475 111.594 310.374 111.661C310.204 111.764 310.008 111.808 309.813 111.786Z" fill="#231F20"/>
<path d="M293.472 96.7018C292.728 97.2432 292.055 97.8813 291.467 98.6004C290.887 99.3838 290.494 100.299 290.32 101.271C290.146 102.243 290.195 103.244 290.464 104.192C291.031 106.094 292.29 107.689 293.973 108.636C294.477 108.977 295.08 109.125 295.677 109.053C296.054 108.927 296.402 108.721 296.7 108.448C298.454 107.01 299.971 105.283 301.191 103.337C302.264 101.872 302.759 100.036 302.574 98.204C302.315 97.2542 301.818 96.3929 301.135 95.7076C300.452 95.0223 299.606 94.5375 298.685 94.3025C296.559 93.6766 295.036 95.4291 293.472 96.7018Z" fill="white"/>
<path d="M295.256 110.034C294.61 110.005 293.982 109.804 293.432 109.45C291.512 108.397 290.071 106.597 289.422 104.442C289.112 103.348 289.057 102.194 289.259 101.073C289.461 99.9529 289.915 98.8981 290.584 97.9954C291.248 97.199 292.01 96.4975 292.85 95.909C293.151 95.7003 293.432 95.45 293.712 95.2205C294.335 94.4861 295.128 93.93 296.016 93.6049C296.904 93.2799 297.857 93.1968 298.785 93.3636C299.868 93.6415 300.859 94.2186 301.653 95.0338C302.447 95.849 303.015 96.8722 303.296 97.9954C303.431 99.0242 303.367 100.071 303.109 101.074C302.851 102.077 302.403 103.016 301.792 103.837C300.529 105.874 298.95 107.678 297.121 109.178C296.716 109.545 296.236 109.809 295.717 109.95L295.256 110.034ZM294.013 97.5155C293.277 98.0018 292.603 98.5837 292.008 99.2472C291.523 99.9099 291.196 100.683 291.053 101.502C290.91 102.322 290.956 103.165 291.186 103.962C291.686 105.621 292.786 107.013 294.254 107.843C294.56 108.077 294.937 108.188 295.316 108.156C295.563 108.068 295.789 107.926 295.978 107.739C297.654 106.379 299.097 104.736 300.249 102.878C301.196 101.624 301.647 100.042 301.512 98.4544C301.287 97.6762 300.871 96.9724 300.305 96.4126C299.739 95.8528 299.042 95.4563 298.284 95.2622C297.161 94.9075 296.279 95.596 294.875 96.7644C294.554 97.0148 294.254 97.286 293.933 97.5155H294.013Z" fill="#231F20"/>
<path d="M310.955 145.377C310.706 145.375 310.469 145.27 310.294 145.085C310.121 144.905 310.024 144.661 310.024 144.407C310.024 144.153 310.121 143.909 310.294 143.729L338.023 116.397C338.196 116.218 338.43 116.117 338.675 116.117C338.919 116.117 339.153 116.218 339.326 116.397C339.411 116.485 339.478 116.589 339.524 116.703C339.57 116.818 339.594 116.941 339.594 117.065C339.594 117.189 339.57 117.312 339.524 117.427C339.478 117.541 339.411 117.645 339.326 117.733L311.577 145.127C311.406 145.286 311.185 145.375 310.955 145.377Z" fill="#231F20"/>
<path d="M509.009 154.975C508.775 154.975 508.551 154.878 508.385 154.706C508.22 154.534 508.127 154.3 508.127 154.057V131.106C508.127 130.863 508.22 130.629 508.385 130.457C508.551 130.285 508.775 130.188 509.009 130.188C509.245 130.188 509.472 130.284 509.64 130.456C509.809 130.628 509.906 130.861 509.911 131.106V154.057C509.911 154.3 509.818 154.534 509.653 154.706C509.488 154.878 509.263 154.975 509.029 154.975H509.009Z" fill="#231F20"/>
<path d="M509.43 151.97C509.43 151.97 505.42 162.402 505.841 162.402C506.262 162.402 510.834 163.32 510.834 163.32L509.43 151.97Z" fill="#231F20"/>
<path d="M510.834 164.28H510.653C508.648 163.842 506.282 163.404 505.901 163.383C505.76 163.414 505.612 163.398 505.48 163.338C505.347 163.278 505.235 163.177 505.159 163.049C504.738 162.527 504.618 162.381 508.608 151.72C508.679 151.528 508.812 151.367 508.983 151.264C509.155 151.162 509.355 151.124 509.55 151.157C509.745 151.179 509.927 151.27 510.065 151.414C510.204 151.558 510.291 151.747 510.312 151.949L511.696 163.278C511.714 163.423 511.7 163.569 511.655 163.707C511.61 163.844 511.535 163.969 511.435 164.071C511.263 164.21 511.051 164.283 510.834 164.28ZM506.924 161.651C507.525 161.755 508.428 161.922 509.791 162.214L509.009 155.767C508.107 158.167 507.265 160.399 506.924 161.588V161.651Z" fill="#231F20"/>
<path d="M468.107 164.468C469.038 162.887 470.528 161.75 472.257 161.301C473.986 160.852 475.815 161.128 477.35 162.068C478.048 162.502 478.623 163.121 479.014 163.863C479.518 165.015 479.618 166.314 479.295 167.535C478.733 169.844 477.384 171.864 475.5 173.218C473.616 174.572 471.325 175.17 469.05 174.9" fill="white"/>
<path d="M470.213 175.943C469.785 175.974 469.357 175.974 468.929 175.943C468.806 175.93 468.686 175.891 468.577 175.828C468.468 175.766 468.373 175.681 468.296 175.579C468.22 175.478 468.164 175.361 468.131 175.236C468.099 175.111 468.092 174.98 468.109 174.852C468.127 174.724 468.169 174.601 468.234 174.491C468.298 174.38 468.383 174.284 468.484 174.209C468.585 174.133 468.7 174.08 468.821 174.052C468.942 174.023 469.068 174.021 469.19 174.044C471.232 174.263 473.283 173.715 474.971 172.498C476.659 171.281 477.872 169.476 478.393 167.41C478.664 166.407 478.593 165.338 478.192 164.384C477.871 163.793 477.408 163.297 476.849 162.945C475.509 162.16 473.932 161.939 472.44 162.327C470.949 162.715 469.656 163.683 468.829 165.031C468.771 165.14 468.692 165.236 468.598 165.313C468.503 165.39 468.395 165.447 468.279 165.48C468.163 165.513 468.042 165.522 467.923 165.506C467.804 165.489 467.69 165.449 467.586 165.386C467.375 165.263 467.218 165.058 467.151 164.816C467.083 164.574 467.11 164.314 467.225 164.092C467.743 163.193 468.428 162.41 469.241 161.79C470.053 161.17 470.977 160.726 471.957 160.483C472.929 160.211 473.945 160.148 474.941 160.299C475.937 160.45 476.894 160.81 477.751 161.359C478.579 161.867 479.268 162.585 479.756 163.445C480.352 164.799 480.48 166.324 480.117 167.764C479.555 170.068 478.282 172.117 476.492 173.594C474.703 175.072 472.497 175.897 470.213 175.943Z" fill="#231F20"/>
<path d="M483.486 136.009C483.342 136.008 483.2 135.976 483.069 135.915C482.938 135.854 482.82 135.765 482.724 135.655C482.563 135.446 465.381 114.791 451.446 115.792C437.511 116.794 433.561 123.804 433.521 123.887C433.383 124.112 433.168 124.274 432.919 124.339C432.67 124.403 432.407 124.366 432.184 124.235C431.96 124.105 431.794 123.89 431.718 123.635C431.642 123.38 431.663 123.104 431.777 122.865C431.957 122.531 436.368 114.749 451.305 113.706C466.243 112.663 483.506 133.422 484.248 134.299C484.369 134.45 484.447 134.635 484.471 134.831C484.496 135.027 484.467 135.226 484.387 135.405C484.307 135.584 484.18 135.736 484.02 135.843C483.861 135.95 483.675 136.008 483.486 136.009Z" fill="white"/>
<path d="M681.379 121.801L626.823 154.787L588.447 86.082L643.805 52.679L681.379 121.801Z" fill="white"/>
<path d="M626.823 155.747C626.661 155.747 626.501 155.703 626.36 155.619C626.219 155.535 626.102 155.413 626.021 155.267L587.645 86.562C587.557 86.3272 587.557 86.0665 587.645 85.8317C587.676 85.7078 587.731 85.5917 587.807 85.4911C587.883 85.3905 587.978 85.3076 588.086 85.2475L643.465 51.8653C643.67 51.7381 643.915 51.7006 644.146 51.761C644.265 51.7926 644.377 51.8497 644.474 51.9288C644.57 52.0078 644.65 52.107 644.708 52.22L682.281 121.342C682.397 121.558 682.426 121.813 682.362 122.051C682.299 122.29 682.147 122.492 681.94 122.615L627.284 155.621C627.144 155.704 626.985 155.748 626.823 155.747ZM589.69 86.4159L627.144 153.493L680.136 121.446L643.465 53.9934L589.69 86.4159Z" fill="#231F20"/>
<path d="M628.788 147.818H628.527C628.274 147.746 628.058 147.574 627.926 147.338L595.244 88.9196C595.176 88.8024 595.132 88.6721 595.113 88.5366C595.095 88.4011 595.103 88.2631 595.136 88.1308C595.17 87.9985 595.229 87.8745 595.309 87.7663C595.39 87.6581 595.49 87.5679 595.605 87.5009L640.517 60.3778C640.63 60.3057 640.756 60.2591 640.887 60.2412C641.019 60.2232 641.152 60.2342 641.279 60.2735C641.409 60.3044 641.531 60.363 641.638 60.4456C641.745 60.5282 641.835 60.633 641.901 60.7534L674.562 119.172C674.695 119.414 674.731 119.7 674.664 119.969C674.596 120.238 674.43 120.469 674.201 120.612L629.289 147.735C629.131 147.803 628.959 147.831 628.788 147.818ZM597.49 88.6484L629.149 145.336L672.336 119.235L640.657 62.5268L597.49 88.6484Z" fill="#D1D3D4"/>
<path d="M614.011 94.3025C613.792 94.3001 613.58 94.2234 613.407 94.084C613.234 93.9445 613.11 93.75 613.053 93.5301C612.996 93.3103 613.01 93.0771 613.093 92.8662C613.175 92.6553 613.322 92.4783 613.51 92.3621L635.825 78.8632C635.94 78.7933 636.067 78.7476 636.198 78.7287C636.33 78.7097 636.464 78.7179 636.592 78.7528C636.72 78.7877 636.841 78.8486 636.947 78.9319C637.053 79.0153 637.142 79.1196 637.209 79.2387C637.276 79.3579 637.32 79.4897 637.338 79.6266C637.356 79.7634 637.349 79.9026 637.315 80.0363C637.282 80.17 637.223 80.2955 637.143 80.4057C637.063 80.5158 636.963 80.6085 636.848 80.6784L614.512 94.1773C614.358 94.2629 614.186 94.306 614.011 94.3025Z" fill="#D1D3D4"/>
<path d="M599.495 125.139C599.495 125.139 601.219 116.794 601.5 115.062C601.781 113.33 608.317 106.466 609.4 107.676C610.482 108.886 605.891 117.712 605.891 117.712C607.095 118.773 607.971 120.181 608.409 121.758C608.848 123.335 608.83 125.012 608.357 126.579" fill="white"/>
<path d="M608.397 127.539C608.312 127.561 608.222 127.561 608.136 127.539C607.903 127.466 607.706 127.3 607.59 127.078C607.473 126.855 607.446 126.593 607.515 126.349C607.955 124.949 607.986 123.444 607.604 122.026C607.222 120.607 606.445 119.338 605.37 118.379C605.197 118.246 605.077 118.051 605.033 117.832C604.989 117.613 605.023 117.385 605.129 117.19C606.647 114.466 607.839 111.558 608.678 108.532C606.153 110.236 604.023 112.502 602.442 115.166L600.337 125.265L598.532 124.847C598.532 124.847 600.277 116.502 600.638 114.77C602.43 111.294 605.172 108.448 608.517 106.591C608.788 106.477 609.086 106.45 609.372 106.513C609.658 106.576 609.919 106.727 610.121 106.946C610.482 107.363 611.605 108.594 607.074 117.378C608.225 118.574 609.04 120.076 609.429 121.72C609.818 123.365 609.766 125.088 609.279 126.704C609.247 126.928 609.142 127.133 608.981 127.285C608.82 127.437 608.614 127.527 608.397 127.539Z" fill="#231F20"/>
<path d="M597.991 166.951C597.829 166.951 597.669 166.907 597.528 166.823C597.387 166.739 597.27 166.617 597.189 166.471L579.505 133.088C579.428 132.978 579.375 132.852 579.349 132.719C579.323 132.586 579.324 132.448 579.352 132.316C579.381 132.183 579.437 132.058 579.515 131.949C579.594 131.841 579.693 131.751 579.808 131.685C579.922 131.62 580.049 131.58 580.179 131.569C580.31 131.559 580.441 131.577 580.564 131.623C580.687 131.668 580.799 131.741 580.893 131.835C580.987 131.93 581.061 132.044 581.109 132.17L598.793 165.553C598.856 165.661 598.896 165.782 598.912 165.907C598.927 166.033 598.918 166.16 598.884 166.281C598.85 166.403 598.793 166.516 598.715 166.613C598.637 166.71 598.541 166.79 598.432 166.846C598.294 166.913 598.144 166.948 597.991 166.951Z" fill="#231F20"/>
<path d="M326.695 304.84C326.502 304.846 326.312 304.787 326.153 304.673L301.472 287.794C301.249 287.644 301.092 287.409 301.035 287.139C300.979 286.869 301.028 286.587 301.171 286.355C301.318 286.121 301.548 285.957 301.811 285.899C302.074 285.84 302.348 285.892 302.574 286.042L327.256 302.92C327.477 303.077 327.63 303.318 327.683 303.591C327.735 303.864 327.683 304.148 327.537 304.381C327.441 304.521 327.315 304.636 327.169 304.716C327.022 304.796 326.86 304.838 326.695 304.84Z" fill="#D1D3D4"/>
<path d="M529.32 340.434C529.181 340.464 529.038 340.464 528.899 340.434C528.657 340.32 528.469 340.111 528.375 339.853C528.281 339.595 528.289 339.309 528.398 339.057L540.428 310.473C540.538 310.222 540.737 310.025 540.984 309.923C541.231 309.822 541.506 309.825 541.751 309.931C541.872 309.985 541.982 310.064 542.074 310.163C542.166 310.262 542.239 310.378 542.287 310.506C542.335 310.634 542.359 310.771 542.357 310.909C542.354 311.046 542.325 311.182 542.272 311.308L530.242 339.912C530.152 340.081 530.017 340.22 529.854 340.312C529.69 340.404 529.505 340.447 529.32 340.434Z" fill="#D1D3D4"/>
</svg>
