<svg width="861" height="654" viewBox="0 0 861 654" fill="none" xmlns="http://www.w3.org/2000/svg">
<path d="M583.995 386.049L537.565 556.275C537.565 556.275 500.973 564.952 501.683 567.251C502.394 569.551 559.456 577.36 559.456 577.36L617.315 400.952" fill="white"/>
<path d="M559.456 578.467H559.327C501.662 570.614 500.93 568.423 500.65 567.62C500.596 567.437 500.579 567.244 500.602 567.054C500.624 566.863 500.684 566.68 500.779 566.514C502.286 563.781 525.899 557.945 536.683 555.407L582.962 385.81C583.037 385.535 583.218 385.301 583.463 385.159C583.709 385.016 584.001 384.978 584.275 385.051C584.412 385.088 584.541 385.153 584.654 385.241C584.766 385.33 584.86 385.439 584.93 385.565C585.001 385.69 585.045 385.828 585.062 385.97C585.079 386.113 585.067 386.258 585.028 386.396L538.599 556.6C538.549 556.791 538.448 556.965 538.308 557.102C538.168 557.24 537.993 557.336 537.802 557.381C523.273 560.787 507.667 565.061 503.534 567.056C509.755 569.074 539.417 573.564 558.725 576.211L616.282 400.648C616.376 400.378 616.569 400.155 616.822 400.026C617.075 399.897 617.367 399.871 617.638 399.954C617.775 399.998 617.902 400.069 618.011 400.163C618.12 400.258 618.209 400.373 618.273 400.502C618.337 400.631 618.375 400.772 618.384 400.917C618.394 401.061 618.374 401.206 618.327 401.342L560.49 577.751C560.413 577.964 560.272 578.148 560.087 578.276C559.902 578.405 559.681 578.471 559.456 578.467Z" fill="#231F20"/>
<path d="M683.161 378.933L695.258 577.404C695.258 577.404 637.98 589.921 637.764 588.424C637.549 586.927 668.631 564.67 668.631 564.67L645.233 381.385" fill="white"/>
<path d="M638.109 589.487C637.377 589.487 637.226 589.487 637.118 589.313C636.872 589.12 636.704 588.842 636.645 588.532C636.516 587.73 636.322 586.363 667.404 564.106L644.114 381.45C644.077 381.162 644.155 380.871 644.33 380.642C644.506 380.412 644.765 380.262 645.05 380.224C645.336 380.187 645.624 380.265 645.852 380.442C646.08 380.619 646.229 380.88 646.267 381.168L669.664 564.453C669.687 564.651 669.657 564.852 669.578 565.035C669.498 565.218 669.372 565.377 669.212 565.494C659.655 572.328 645.018 583.109 640.218 587.188C648.29 586.125 675.863 580.398 694.031 576.341L682.084 379.064C682.075 378.921 682.095 378.778 682.141 378.643C682.187 378.508 682.259 378.384 682.353 378.277C682.447 378.17 682.561 378.083 682.689 378.021C682.816 377.958 682.954 377.922 683.096 377.914C683.38 377.902 683.658 378.001 683.871 378.191C684.083 378.382 684.215 378.648 684.237 378.933L696.269 577.404C696.29 577.663 696.216 577.921 696.062 578.128C695.907 578.336 695.682 578.48 695.43 578.532C651.196 588.12 640.778 589.487 638.109 589.487Z" fill="#231F20"/>
<path d="M590.474 213.393C587.546 214.326 584.597 215.215 581.627 215.996C558.071 222.535 533.712 225.661 509.282 225.281C501.124 225.064 490.232 225.281 482.763 221.767C476.951 218.99 471.484 214.131 466.124 210.551C464.746 209.64 462.529 208.881 461.819 210.334C461.216 211.441 462.12 212.742 462.981 213.632C466.084 216.821 469.462 219.725 473.076 222.309C466.108 221.1 459.053 220.461 451.982 220.4C451.668 220.363 451.35 220.432 451.078 220.595C450.281 221.203 451.315 222.374 452.24 222.765C454.387 223.67 456.605 224.395 458.87 224.934C456.774 224.283 454.604 223.904 452.412 223.806C451.422 223.806 450.26 223.806 449.808 224.782C449.227 226.062 450.755 227.255 452.068 227.776C454.179 228.62 456.334 229.344 458.526 229.945C455.981 229.9 453.443 230.229 450.992 230.921C450.563 230.994 450.169 231.208 449.873 231.529C449.673 231.86 449.59 232.25 449.636 232.635C449.879 233.658 450.417 234.586 451.184 235.3C451.95 236.015 452.91 236.484 453.941 236.648C456.018 236.915 458.08 237.292 460.118 237.776C458.224 237.906 456.352 237.212 454.479 237.342C452.606 237.472 450.497 239.013 450.906 240.878C451.315 242.744 453.058 243.048 454.78 243.525C486.444 250.691 518.934 253.45 551.341 251.725C567.538 250.881 583.66 248.946 599.6 245.933C614.001 243.199 628.745 240.857 638.496 228.73C639.264 227.823 639.982 226.874 640.649 225.888C643.023 222.753 644.082 218.804 643.598 214.89C641.208 203.154 625.646 204.195 616.777 205.909C607.875 207.898 599.093 210.396 590.474 213.393Z" fill="white"/>
<path d="M532.443 253.243C506.201 253.286 480.037 250.376 454.436 244.566C452.649 244.154 450.131 243.351 449.743 241.074C449.644 240.59 449.652 240.09 449.768 239.61C449.883 239.13 450.103 238.681 450.411 238.297C450.787 237.786 451.263 237.357 451.81 237.039C450.918 236.676 450.135 236.085 449.538 235.324C448.942 234.563 448.552 233.659 448.409 232.7C448.316 232.046 448.47 231.38 448.839 230.834C449.279 230.315 449.877 229.957 450.54 229.815C451.315 229.598 452.111 229.424 452.908 229.272L451.53 228.73C450.294 228.289 449.266 227.399 448.646 226.235C448.513 225.927 448.444 225.595 448.444 225.259C448.444 224.923 448.513 224.591 448.646 224.283C448.813 223.929 449.056 223.617 449.358 223.37C449.659 223.122 450.012 222.945 450.389 222.851C449.977 222.459 449.705 221.94 449.614 221.376C449.57 221.064 449.61 220.746 449.732 220.455C449.853 220.165 450.051 219.913 450.303 219.727C450.763 219.427 451.306 219.282 451.853 219.315C457.556 219.366 463.251 219.786 468.901 220.574C466.505 218.629 464.227 216.543 462.077 214.326C460.054 212.157 460.226 210.681 460.743 209.749C460.911 209.427 461.146 209.147 461.432 208.926C461.718 208.705 462.049 208.549 462.4 208.469C463.922 208.274 465.461 208.669 466.705 209.575C468.556 210.812 470.429 212.2 472.237 213.567C475.681 216.283 479.363 218.68 483.236 220.725C489.586 223.741 498.864 223.914 506.29 224.066H509.303C533.632 224.466 557.893 221.354 581.347 214.825C583.93 214.131 586.642 213.328 590.151 212.243L595.188 210.638C602.179 208.228 609.31 206.25 616.541 204.716C624.096 203.241 641.94 201.288 644.523 214.543C645.255 218.101 644.157 222.092 641.273 226.387C640.604 227.392 639.886 228.362 639.12 229.294C629.52 241.247 615.228 243.937 601.387 246.649L599.6 246.996C583.611 250.024 567.438 251.966 551.191 252.81C544.963 253.099 538.713 253.243 532.443 253.243ZM454.845 238.384H454.436C453.989 238.416 453.553 238.538 453.154 238.743C452.755 238.948 452.4 239.232 452.111 239.577C451.991 239.714 451.904 239.878 451.86 240.055C451.815 240.232 451.812 240.418 451.853 240.596C452.025 241.399 453.015 242.006 454.909 242.44C486.481 249.588 518.878 252.333 551.191 250.597C567.337 249.759 583.409 247.831 599.299 244.826L601.107 244.479C614.56 241.941 628.466 239.316 637.571 227.993C638.281 227.125 638.948 226.192 639.572 225.259C640.71 223.837 641.556 222.202 642.062 220.448C642.568 218.694 642.724 216.857 642.521 215.042C640.218 203.696 623.859 205.562 616.95 206.907C609.807 208.425 602.762 210.381 595.855 212.764L590.797 214.369C587.267 215.476 584.511 216.278 581.907 216.972C558.259 223.57 533.794 226.712 509.26 226.301H506.247C498.605 226.149 489.027 225.975 482.311 222.743C478.303 220.658 474.504 218.188 470.967 215.367C469.094 213.979 467.308 212.656 465.521 211.462C464.801 210.888 463.899 210.595 462.981 210.638C462.919 210.651 462.86 210.677 462.808 210.714C462.756 210.751 462.712 210.799 462.68 210.855C462.486 211.245 462.874 212.026 463.692 212.894C466.748 216.074 470.076 218.978 473.636 221.571C473.833 221.714 473.976 221.919 474.043 222.154C474.11 222.389 474.096 222.639 474.004 222.865C473.912 223.091 473.747 223.279 473.536 223.398C473.324 223.518 473.079 223.562 472.84 223.524C466.004 222.354 459.088 221.723 452.154 221.636C452.285 221.743 452.43 221.831 452.585 221.897C453.994 222.482 455.43 222.996 456.89 223.437C457.622 223.611 458.332 223.806 459.042 224.023C459.31 224.099 459.537 224.278 459.674 224.522C459.811 224.766 459.847 225.054 459.774 225.324C459.698 225.596 459.522 225.828 459.282 225.973C459.042 226.118 458.756 226.166 458.483 226.105C457.772 225.932 457.062 225.758 456.33 225.541C454.912 225.241 453.472 225.053 452.025 224.977C451.164 224.977 450.561 224.977 450.432 225.346C450.41 225.424 450.41 225.507 450.432 225.585C450.839 226.184 451.428 226.633 452.111 226.865C454.169 227.714 456.275 228.438 458.418 229.034C458.67 229.109 458.887 229.273 459.029 229.496C459.172 229.719 459.23 229.986 459.193 230.249C459.152 230.505 459.02 230.739 458.823 230.906C458.625 231.073 458.375 231.163 458.117 231.16C455.681 231.11 453.251 231.424 450.906 232.093C450.707 232.127 450.517 232.201 450.346 232.31C450.319 232.424 450.319 232.543 450.346 232.657C450.497 234.219 452.24 235.325 453.876 235.715C454.7 235.9 455.534 236.038 456.373 236.127C457.667 236.235 458.946 236.49 460.183 236.887C460.415 236.973 460.611 237.135 460.74 237.348C460.869 237.561 460.923 237.811 460.893 238.058C460.851 238.305 460.729 238.53 460.546 238.699C460.363 238.868 460.129 238.971 459.882 238.991C458.858 239.018 457.835 238.946 456.825 238.774C456.173 238.623 455.511 238.514 454.845 238.449V238.384Z" fill="#231F20"/>
<path d="M525.447 555.559L533.196 567.447L563.331 571.048L560.382 582.697C560.382 582.697 493.913 574.323 492.384 568.184C490.856 562.045 525.447 555.559 525.447 555.559Z" fill="#231F20"/>
<path d="M606.747 195.713C606.747 195.713 585.867 200.724 579.582 213.74C573.297 226.756 580.809 296.565 580.809 296.565L673.366 300.556C673.366 300.556 682.859 249.143 678.21 227.103C673.56 205.063 655.113 175.69 606.747 195.713Z" fill="#C896DA"/>
<path d="M609.459 183.825L603.518 203.349C603.518 203.349 603.647 214.89 616.325 213.567C620.071 213.134 623.674 211.866 626.872 209.855C630.07 207.844 632.784 205.14 634.815 201.939L639.336 167.013C637.363 165.375 636.066 163.055 635.698 160.505C635.364 158.582 635.364 156.615 635.698 154.691C635.827 153.954 636.645 149.637 637.484 149.485C635.079 149.873 632.616 149.667 630.306 148.885C627.997 148.102 625.91 146.768 624.225 144.995C622.463 142.904 621.012 140.565 619.92 138.053C618.917 136.526 618.525 134.674 618.822 132.868C614.847 135.413 610.994 138.147 607.263 141.068C605.199 142.582 603.327 144.345 601.688 146.318C598.998 149.832 598.266 154.67 597.642 158.943C596.817 164.019 596.464 169.161 596.587 174.302C596.867 184.086 609.459 183.825 609.459 183.825Z" fill="white"/>
<path d="M614.345 214.781C611.419 214.922 608.549 213.937 606.316 212.026C604.01 209.776 602.66 206.712 602.549 203.479C602.528 203.379 602.528 203.276 602.549 203.176L608.103 184.867C603.217 184.541 595.769 182.09 595.489 174.345C595.371 169.146 595.731 163.946 596.565 158.813C597.168 154.648 597.921 149.463 600.87 145.797C602.553 143.754 604.484 141.931 606.618 140.374C610.363 137.445 614.28 134.669 618.263 132.109C618.428 131.998 618.623 131.939 618.822 131.939C619.021 131.939 619.216 131.998 619.382 132.109C619.542 132.233 619.661 132.403 619.723 132.597C619.784 132.791 619.786 132.999 619.726 133.194C619.521 134.76 619.888 136.349 620.76 137.662C621.858 140.099 623.309 142.357 625.065 144.366C626.644 146.013 628.591 147.257 630.744 147.992C632.897 148.728 635.193 148.935 637.441 148.596C637.57 148.574 637.702 148.578 637.829 148.608C637.956 148.638 638.076 148.692 638.182 148.769C638.288 148.846 638.378 148.942 638.446 149.054C638.515 149.166 638.561 149.29 638.582 149.42C638.613 149.634 638.575 149.853 638.475 150.044C638.374 150.235 638.216 150.389 638.023 150.483C637.42 151.912 637.007 153.414 636.796 154.952C636.483 156.76 636.483 158.61 636.796 160.418C637.115 162.737 638.263 164.858 640.024 166.384C640.171 166.486 640.287 166.628 640.359 166.792C640.431 166.957 640.457 167.139 640.433 167.317L635.935 202.243C635.915 202.373 635.871 202.498 635.805 202.612C633.706 205.961 630.883 208.789 627.547 210.885C624.211 212.981 620.449 214.29 616.541 214.716C615.615 214.738 615.012 214.781 614.345 214.781ZM604.508 203.588C604.659 206.224 605.77 208.712 607.629 210.573C608.829 211.531 610.217 212.22 611.702 212.594C613.187 212.968 614.734 213.018 616.239 212.742C619.788 212.34 623.206 211.161 626.255 209.288C629.304 207.414 631.91 204.891 633.89 201.896L638.195 167.707C636.267 165.909 635.013 163.495 634.643 160.874C634.288 158.836 634.288 156.751 634.643 154.713C634.845 153.405 635.148 152.114 635.547 150.852C633.288 150.921 631.04 150.51 628.949 149.647C626.857 148.784 624.969 147.487 623.407 145.841C621.555 143.683 620.025 141.264 618.865 138.66C618.222 137.492 617.778 136.224 617.552 134.907C614.18 137.135 610.894 139.499 607.694 142.001C605.737 143.428 603.959 145.089 602.399 146.947C599.837 150.288 599.148 154.974 598.546 159.117C597.74 164.136 597.387 169.219 597.491 174.302C597.792 182.979 609.007 182.979 609.437 182.979C609.591 182.976 609.744 183.01 609.882 183.077C610.021 183.145 610.141 183.246 610.234 183.37C610.329 183.495 610.393 183.64 610.423 183.794C610.453 183.948 610.447 184.108 610.406 184.259L604.508 203.588Z" fill="#231F20"/>
<path d="M632.512 164.301C633.074 162.865 634.087 161.654 635.396 160.852C636.637 160.15 637.993 159.68 639.4 159.464C640.157 159.28 640.946 159.28 641.703 159.464C642.23 159.615 642.721 159.874 643.145 160.223C644.201 160.962 644.964 162.053 645.298 163.304C645.448 164.344 645.36 165.405 645.04 166.406C644.753 167.512 644.326 168.577 643.77 169.573C642.587 171.54 640.678 172.953 638.462 173.502C636.247 174.051 633.905 173.691 631.952 172.501" fill="white"/>
<path d="M636.516 174.411C634.777 174.416 633.071 173.935 631.587 173.022C631.393 172.901 631.254 172.709 631.198 172.487C631.142 172.264 631.173 172.029 631.285 171.829C631.343 171.73 631.419 171.644 631.511 171.576C631.602 171.507 631.706 171.459 631.817 171.432C631.928 171.406 632.043 171.402 632.155 171.422C632.267 171.442 632.374 171.484 632.469 171.547C633.338 172.082 634.304 172.438 635.311 172.595C636.317 172.751 637.345 172.705 638.334 172.459C639.322 172.213 640.253 171.772 641.072 171.161C641.89 170.55 642.58 169.782 643.102 168.9C643.613 167.971 644.004 166.98 644.265 165.95C644.573 165.089 644.662 164.165 644.523 163.26C644.21 162.209 643.539 161.303 642.629 160.7C642.295 160.414 641.907 160.2 641.488 160.071C640.848 159.978 640.195 160.022 639.572 160.202C638.259 160.404 636.992 160.837 635.827 161.481C634.689 162.189 633.806 163.246 633.309 164.497C633.27 164.603 633.211 164.701 633.135 164.784C633.059 164.867 632.967 164.934 632.864 164.98C632.762 165.027 632.651 165.052 632.539 165.055C632.427 165.057 632.315 165.037 632.211 164.996C632.104 164.955 632.007 164.893 631.925 164.814C631.842 164.735 631.776 164.641 631.73 164.536C631.684 164.431 631.659 164.318 631.656 164.203C631.654 164.088 631.674 163.974 631.716 163.868C632.345 162.236 633.496 160.862 634.988 159.963C636.326 159.217 637.782 158.71 639.293 158.466C640.176 158.248 641.099 158.248 641.983 158.466C642.616 158.657 643.207 158.966 643.727 159.377C644.972 160.225 645.873 161.495 646.267 162.957C646.45 164.134 646.354 165.338 645.987 166.471C645.685 167.654 645.229 168.792 644.631 169.855C643.992 170.927 643.15 171.862 642.153 172.607C641.156 173.351 640.023 173.89 638.819 174.194C638.062 174.356 637.289 174.429 636.516 174.411Z" fill="#231F20"/>
<path d="M606.489 192.958C608.722 193.525 611.05 193.601 613.316 193.182C615.581 192.762 617.73 191.858 619.619 190.529C621.324 189.393 622.767 187.901 623.848 186.152C624.929 184.404 625.623 182.441 625.883 180.398C625.883 180.398 616.282 186.537 608.447 183.804L606.489 192.958Z" fill="#231F20"/>
<path d="M610.492 194.412C609.04 194.427 607.591 194.244 606.187 193.869C605.958 193.799 605.764 193.643 605.644 193.433C605.524 193.224 605.487 192.977 605.541 192.741L607.5 183.608C607.533 183.477 607.591 183.353 607.673 183.245C607.754 183.136 607.857 183.046 607.974 182.979C608.096 182.926 608.228 182.898 608.361 182.898C608.495 182.898 608.626 182.926 608.749 182.979C616.046 185.517 625.258 179.725 625.344 179.66C625.49 179.57 625.658 179.522 625.829 179.522C626 179.522 626.167 179.57 626.313 179.66C626.466 179.741 626.593 179.863 626.68 180.012C626.768 180.162 626.812 180.333 626.808 180.506C626.546 182.692 625.815 184.794 624.667 186.667C623.518 188.54 621.98 190.139 620.157 191.353C617.344 193.391 613.956 194.463 610.492 194.412ZM607.608 192.242C609.58 192.618 611.608 192.593 613.57 192.168C615.533 191.744 617.392 190.928 619.038 189.769C621.667 187.956 623.615 185.305 624.57 182.242C621.513 183.847 615.077 186.58 609.158 185.04L607.608 192.242Z" fill="#231F20"/>
<path d="M617.186 150.375C617.186 150.375 609.158 158.9 610.406 160.831C611.654 162.761 616.089 162.393 616.089 162.393" fill="white"/>
<path d="M615.163 163.39C613.613 163.39 610.729 163.13 609.61 161.351C608.232 159.182 612.602 153.845 616.498 149.702C616.672 149.518 616.911 149.411 617.164 149.405C617.416 149.399 617.66 149.494 617.843 149.669C618.026 149.845 618.132 150.086 618.138 150.341C618.144 150.595 618.049 150.841 617.875 151.025C614.13 155.017 611.009 159.377 611.224 160.375C611.891 161.395 614.733 161.546 616.003 161.438C616.127 161.428 616.252 161.443 616.371 161.482C616.489 161.52 616.599 161.582 616.694 161.664C616.789 161.745 616.867 161.845 616.924 161.957C616.981 162.069 617.015 162.191 617.025 162.317C617.035 162.442 617.02 162.568 616.982 162.688C616.943 162.807 616.882 162.918 616.801 163.014C616.72 163.109 616.621 163.188 616.51 163.245C616.399 163.302 616.278 163.337 616.153 163.347C615.825 163.383 615.494 163.398 615.163 163.39Z" fill="#231F20"/>
<path d="M629.226 153.292C629.692 152.125 629.399 150.907 628.572 150.572C627.744 150.236 626.696 150.91 626.23 152.077C625.764 153.244 626.057 154.462 626.884 154.798C627.711 155.133 628.76 154.459 629.226 153.292Z" fill="#231F20"/>
<path d="M609.295 152.178C609.761 151.011 609.468 149.793 608.641 149.458C607.814 149.122 606.766 149.796 606.3 150.963C605.834 152.13 606.126 153.348 606.953 153.684C607.781 154.019 608.829 153.345 609.295 152.178Z" fill="#231F20"/>
<path d="M605.068 167.447L620.953 166.818C620.953 166.818 620.523 177.664 611.267 178.532C602.011 179.4 605.068 167.447 605.068 167.447Z" fill="#231F20"/>
<path d="M664.111 299.667C664.111 299.667 686.454 324.744 692.696 352.381C705.805 410.519 706.192 499.46 706.192 499.46L536.489 487.247L576.87 295.046L664.111 299.667Z" fill="#231F20"/>
<path d="M695.258 286.542C691.868 286.553 688.5 285.996 685.292 284.894C685.15 284.845 685.02 284.769 684.908 284.67C684.795 284.571 684.704 284.45 684.638 284.315C684.572 284.18 684.533 284.034 684.523 283.883C684.513 283.733 684.533 283.583 684.581 283.44C684.629 283.298 684.705 283.166 684.803 283.053C684.902 282.94 685.021 282.848 685.155 282.781C685.289 282.715 685.435 282.676 685.584 282.666C685.733 282.656 685.882 282.676 686.023 282.724C692.107 284.633 698.618 284.665 704.72 282.817C710.822 280.97 716.237 277.326 720.27 272.355C724.14 267.219 726.623 261.16 727.475 254.769C728.328 248.377 727.521 241.872 725.134 235.889C720.27 223.741 709.83 214.89 699.735 206.321C697.97 204.824 696.183 203.306 694.461 201.787C681.826 190.789 675.089 179.964 671.666 165.603C668.545 152.153 664.886 138.183 657.632 127.987C651.605 119.527 636.86 109.743 625.969 114.255C622.588 115.836 619.467 117.929 616.713 120.46C616.589 120.556 616.447 120.627 616.295 120.668C616.144 120.709 615.986 120.719 615.83 120.698C609.929 119.675 603.902 119.631 597.986 120.568C592.157 121.521 586.911 124.689 583.328 129.419C580.276 134.391 578.951 140.244 579.561 146.058C579.668 147.75 580.25 149.789 581.541 149.941C581.831 149.979 582.094 150.129 582.275 150.36C582.456 150.591 582.54 150.884 582.51 151.177C582.494 151.325 582.449 151.468 582.377 151.598C582.305 151.728 582.208 151.841 582.091 151.932C581.975 152.024 581.841 152.09 581.699 152.128C581.556 152.166 581.407 152.175 581.261 152.153C579.109 151.893 577.58 149.659 577.344 146.188C576.668 139.869 578.14 133.505 581.52 128.139C585.416 122.952 591.142 119.473 597.513 118.421C603.507 117.43 609.621 117.43 615.615 118.421C618.44 115.872 621.634 113.773 625.086 112.195C637.183 107.183 652.789 117.401 659.397 126.686C666.888 137.207 670.612 151.416 673.797 165.082C676.983 178.749 683.613 189.422 695.86 200.095C697.582 201.614 699.347 203.111 701.134 204.607C711.423 213.285 722.078 222.396 727.158 234.978C729.741 241.324 730.62 248.245 729.705 255.043C728.791 261.841 726.115 268.276 721.949 273.7C718.704 277.68 714.632 280.893 710.02 283.112C705.408 285.332 700.368 286.502 695.258 286.542Z" fill="#231F20"/>
<path d="M700.531 580.094L698.788 568.119L663.809 577.838L657.008 568.792C657.008 568.792 631.393 587.513 634.987 591.656C638.582 595.8 676.272 588.229 700.531 580.094Z" fill="#231F20"/>
<path d="M533.82 387.502C533.647 387.505 533.476 387.465 533.322 387.385C533.168 387.306 533.036 387.19 532.937 387.047L501.102 340.797C500.943 340.557 500.883 340.264 500.935 339.98C500.988 339.697 501.148 339.445 501.382 339.278C501.497 339.197 501.627 339.139 501.765 339.109C501.903 339.079 502.045 339.077 502.183 339.103C502.322 339.13 502.454 339.184 502.571 339.262C502.689 339.341 502.789 339.442 502.867 339.56L534.746 385.81C534.827 385.926 534.884 386.058 534.913 386.196C534.943 386.335 534.945 386.479 534.919 386.618C534.893 386.758 534.839 386.89 534.762 387.009C534.684 387.127 534.583 387.228 534.466 387.307C534.279 387.444 534.051 387.513 533.82 387.502Z" fill="#D1D3D4"/>
<path d="M534.767 122.412C534.564 122.421 534.362 122.37 534.187 122.266C534.012 122.162 533.87 122.009 533.779 121.825C533.688 121.642 533.651 121.436 533.674 121.232C533.697 121.028 533.777 120.835 533.906 120.677L568.346 75.7068C568.429 75.5842 568.535 75.48 568.659 75.4005C568.783 75.321 568.922 75.2679 569.067 75.2445C569.212 75.2211 569.36 75.2278 569.503 75.2644C569.645 75.3009 569.778 75.3665 569.895 75.457C570.011 75.5475 570.108 75.661 570.179 75.7906C570.25 75.9202 570.294 76.063 570.308 76.2104C570.322 76.3578 570.307 76.5065 570.262 76.6475C570.217 76.7885 570.143 76.9187 570.047 77.0301L535.607 122C535.505 122.127 535.378 122.229 535.233 122.3C535.087 122.372 534.929 122.41 534.767 122.412Z" fill="#D1D3D4"/>
<path d="M268.697 324.744L323.865 559.832L275.951 571.395L223.236 381.471L207.932 576.341L158.209 573.759L156.508 301.619L268.697 324.744Z" fill="#231F20"/>
<path d="M253.715 203.761C253.392 205.041 350.578 219.163 350.578 219.163L343.561 250.337C343.561 250.337 279.825 243.265 246.052 237.798L253.715 203.761Z" fill="white"/>
<path d="M343.582 251.421H343.475C342.829 251.421 279.308 244.284 245.902 238.883C245.754 238.864 245.613 238.814 245.486 238.735C245.36 238.657 245.252 238.551 245.17 238.427C245.011 238.176 244.957 237.872 245.019 237.581L252.661 203.544C252.727 203.266 252.9 203.025 253.142 202.875C253.384 202.724 253.675 202.677 253.952 202.742C254.109 202.783 254.256 202.857 254.383 202.959C258.343 204.39 313.899 212.786 350.728 218.144C350.875 218.166 351.015 218.218 351.14 218.296C351.266 218.375 351.375 218.478 351.46 218.599C351.546 218.72 351.606 218.858 351.635 219.004C351.665 219.15 351.664 219.3 351.632 219.445L344.615 250.618C344.554 250.848 344.42 251.051 344.233 251.196C344.047 251.341 343.818 251.42 343.582 251.421ZM247.365 236.908C278.727 241.92 334.757 248.254 342.743 249.143L349.2 220.075C277.07 209.575 259.075 206.299 254.49 205.085L247.365 236.908Z" fill="#231F20"/>
<path d="M198.03 191.223C198.417 190.008 257.31 202.677 257.31 202.677L255.157 247.213L214.798 232.657C214.798 232.657 195.404 199.358 198.03 191.223Z" fill="#C896DA"/>
<path d="M236.775 217.884C235.893 215.476 224.743 190.615 192.24 189.813C159.737 189.01 146.262 187.643 139.482 228.86C132.271 272.442 154.765 348.758 154.765 348.758L278.706 320.557C278.706 320.557 245.385 241.29 236.775 217.884Z" fill="#C896DA"/>
<path d="M431.792 158.119L477.446 160.136C472.388 177.491 476.327 191.808 488.704 201.18C495.053 205.874 502.648 208.552 510.516 208.873C518.384 209.193 526.168 207.142 532.873 202.98C545.788 194.824 550.846 180.788 547.381 163.217L583.973 164.822L577.344 317.976L425.205 311.294C425.205 310.101 425.205 308.886 425.377 307.693C426.001 292.833 426.69 277.974 427.228 263.114C427.331 260.846 426.98 258.581 426.195 256.454C425.897 255.627 425.422 254.875 424.805 254.252C424.188 253.629 423.443 253.15 422.622 252.848C421.802 252.546 420.926 252.429 420.056 252.505C419.185 252.581 418.342 252.848 417.585 253.287C412.424 255.576 406.65 256.055 401.187 254.647C395.724 253.239 390.887 250.026 387.45 245.521C383.948 240.963 382.069 235.35 382.116 229.585C382.163 223.821 384.133 218.24 387.708 213.74C391.146 209.308 395.994 206.206 401.437 204.957C406.879 203.708 412.583 204.389 417.585 206.885C424.731 210.421 429.617 207.623 430.048 199.553C430.715 186.537 431.189 173.716 431.77 160.809C431.705 159.963 431.749 159.247 431.792 158.119Z" fill="white"/>
<path d="M577.301 319.06L425.162 312.379C424.873 312.357 424.604 312.225 424.408 312.01C424.313 311.905 424.239 311.782 424.191 311.648C424.143 311.514 424.122 311.371 424.129 311.229L424.774 296.76C425.248 285.544 425.743 274.307 426.152 263.07C426.249 260.95 425.92 258.833 425.183 256.844C424.963 256.199 424.613 255.608 424.153 255.107C423.693 254.607 423.135 254.208 422.514 253.937C421.779 253.678 420.998 253.572 420.221 253.628C419.443 253.684 418.685 253.9 417.994 254.263C412.632 256.629 406.638 257.12 400.967 255.658C395.296 254.195 390.273 250.864 386.697 246.193C383.055 241.438 381.103 235.588 381.153 229.582C381.204 223.575 383.255 217.76 386.976 213.068C390.558 208.477 395.592 205.263 401.241 203.96C406.889 202.657 412.81 203.345 418.015 205.909C421.201 207.471 423.892 207.731 425.786 206.603C427.68 205.475 428.735 203.045 428.929 199.488C429.402 190.442 429.79 181.222 430.156 172.328C430.306 168.467 430.478 164.605 430.651 160.765V158.075C430.665 157.787 430.788 157.516 430.995 157.316C431.209 157.128 431.486 157.028 431.77 157.034L477.424 159.052C477.591 159.052 477.754 159.094 477.901 159.174C478.047 159.253 478.172 159.368 478.264 159.507C478.357 159.641 478.419 159.795 478.445 159.956C478.471 160.118 478.461 160.283 478.415 160.44C473.55 177.317 477.317 191.179 489.349 200.312C495.538 204.888 502.942 207.497 510.611 207.806C518.281 208.115 525.867 206.11 532.399 202.047C544.798 194.173 549.77 180.354 546.412 163.412C546.376 163.252 546.379 163.086 546.42 162.927C546.461 162.769 546.54 162.622 546.649 162.501C546.748 162.37 546.88 162.267 547.031 162.202C547.182 162.137 547.347 162.113 547.51 162.132L584.102 163.737C584.245 163.74 584.385 163.772 584.515 163.832C584.645 163.891 584.761 163.977 584.856 164.085C584.952 164.189 585.026 164.312 585.074 164.446C585.123 164.58 585.143 164.723 585.136 164.865L578.506 318.019C578.504 318.163 578.472 318.304 578.413 318.435C578.353 318.566 578.268 318.683 578.161 318.778C578.046 318.884 577.91 318.964 577.761 319.013C577.613 319.062 577.456 319.078 577.301 319.06ZM426.195 310.253L576.203 316.761L582.66 165.755L548.672 164.301C551.707 181.656 546.326 195.648 533.454 203.848C526.56 208.115 518.562 210.218 510.477 209.89C502.393 209.562 494.589 206.816 488.058 202.004C475.552 192.503 471.397 178.445 476.047 161.156L432.825 159.247V160.852C432.674 164.714 432.502 168.553 432.351 172.415C431.985 181.331 431.598 190.55 431.124 199.596C430.887 203.935 429.445 206.994 426.819 208.49C424.193 209.987 420.9 209.77 417.025 207.84C412.265 205.486 406.848 204.848 401.678 206.033C396.507 207.217 391.896 210.152 388.612 214.347C385.203 218.65 383.324 223.981 383.277 229.488C383.231 234.994 385.018 240.357 388.354 244.718C391.627 249.007 396.229 252.07 401.427 253.422C406.625 254.774 412.123 254.337 417.047 252.18C418 251.684 419.045 251.392 420.116 251.325C421.187 251.258 422.261 251.416 423.268 251.79C424.167 252.166 424.977 252.73 425.644 253.444C426.312 254.158 426.822 255.006 427.142 255.933C427.984 258.198 428.365 260.611 428.261 263.027C427.852 274.264 427.357 285.501 426.862 296.738L426.195 310.253Z" fill="#231F20"/>
<path d="M397.459 159.204L402.13 196.841C384.523 194.455 370.381 200.985 363.084 214.825C359.446 221.798 357.987 229.717 358.897 237.542C359.808 245.367 363.046 252.731 368.185 258.667C378.948 270.75 394.317 273.852 410.848 267.344L416.466 312.661L250.121 333.508L231.135 180.138L283.786 173.63C285.428 173.437 287.01 172.892 288.426 172.033C289.842 171.174 291.06 170.019 291.997 168.647C292.935 167.275 293.571 165.717 293.862 164.077C294.154 162.437 294.094 160.753 293.687 159.139C293.058 156.813 292.192 154.56 291.104 152.414C288.426 147.602 287.361 142.048 288.069 136.577C288.777 131.107 291.22 126.013 295.033 122.056C298.847 118.098 303.827 115.487 309.232 114.613C314.637 113.739 320.177 114.649 325.028 117.206C329.938 119.758 333.908 123.83 336.352 128.824C338.797 133.818 339.588 139.471 338.61 144.951C338.244 147.121 337.749 149.29 337.426 151.459C336.307 158.726 342.678 167.057 351.417 165.234C360.156 163.412 388.462 160.332 397.459 159.204Z" fill="white"/>
<path d="M250.12 334.549C249.886 334.558 249.657 334.481 249.475 334.332C249.358 334.246 249.261 334.135 249.191 334.008C249.12 333.881 249.078 333.74 249.066 333.595L230.059 180.246C230.041 180.103 230.051 179.959 230.089 179.82C230.127 179.681 230.192 179.552 230.281 179.439C230.369 179.326 230.478 179.232 230.603 179.162C230.727 179.092 230.865 179.047 231.006 179.031L234.687 178.554L283.656 172.393C285.172 172.201 286.63 171.685 287.932 170.881C289.235 170.077 290.353 169.002 291.212 167.729C292.039 166.505 292.594 165.116 292.84 163.655C293.085 162.195 293.014 160.699 292.632 159.269C292.031 157.016 291.194 154.835 290.135 152.761C287.418 147.749 286.369 141.99 287.141 136.332C287.913 130.675 290.466 125.416 294.425 121.329C298.384 117.242 303.539 114.543 309.133 113.629C314.727 112.715 320.464 113.634 325.501 116.251C330.61 118.916 334.738 123.158 337.283 128.357C339.827 133.556 340.654 139.44 339.643 145.146C339.492 146.101 339.299 147.034 339.126 147.967C338.954 148.899 338.653 150.353 338.459 151.568C338.242 153.38 338.448 155.218 339.061 156.935C339.674 158.653 340.677 160.202 341.989 161.46C343.184 162.633 344.649 163.49 346.253 163.952C347.858 164.414 349.551 164.467 351.18 164.106C357.638 162.761 374.858 160.766 387.45 159.312L397.33 158.141C397.611 158.109 397.894 158.189 398.119 158.363C398.343 158.537 398.493 158.791 398.535 159.073L403.185 196.711C403.21 196.877 403.197 197.046 403.146 197.205C403.094 197.364 403.006 197.509 402.889 197.627C402.771 197.746 402.627 197.835 402.469 197.886C402.311 197.938 402.144 197.952 401.979 197.926C384.91 195.626 371.091 201.961 364.052 215.28C360.538 222.064 359.128 229.757 360.007 237.358C360.886 244.96 364.013 252.12 368.982 257.907C379.335 269.578 394.467 272.594 410.46 266.172C410.612 266.107 410.777 266.078 410.942 266.089C411.107 266.1 411.267 266.149 411.41 266.234C411.552 266.318 411.673 266.435 411.762 266.575C411.851 266.715 411.907 266.875 411.924 267.04L417.52 312.379C417.539 312.52 417.529 312.664 417.492 312.802C417.455 312.94 417.392 313.069 417.305 313.182C417.219 313.291 417.112 313.383 416.989 313.45C416.867 313.517 416.733 313.558 416.595 313.572L250.25 334.506L250.12 334.549ZM232.341 181.049L251.068 332.25L415.26 311.598L409.944 268.732C393.542 274.85 378.087 271.487 367.367 259.383C362.112 253.263 358.804 245.693 357.871 237.654C356.939 229.616 358.425 221.481 362.137 214.304C369.434 200.442 383.511 193.674 400.882 195.583L396.577 160.397L387.751 161.438C375.891 162.805 357.961 164.887 351.675 166.211C349.703 166.648 347.655 166.586 345.712 166.029C343.77 165.473 341.995 164.439 340.547 163.022C338.974 161.54 337.771 159.705 337.038 157.665C336.305 155.625 336.061 153.439 336.328 151.286C336.522 150.049 336.759 148.813 337.017 147.576L337.533 144.821C338.462 139.568 337.698 134.153 335.355 129.368C333.012 124.583 329.212 120.679 324.511 118.225C319.878 115.817 314.6 114.973 309.455 115.817C304.31 116.661 299.57 119.148 295.934 122.912C292.298 126.677 289.958 131.519 289.259 136.725C288.56 141.931 289.538 147.225 292.051 151.828C293.185 154.039 294.08 156.366 294.72 158.77C295.177 160.501 295.26 162.311 294.963 164.078C294.666 165.844 293.996 167.526 292.998 169.009C291.968 170.536 290.627 171.825 289.065 172.79C287.503 173.755 285.754 174.374 283.936 174.606L234.967 180.788L232.341 181.049Z" fill="#231F20"/>
<path d="M207.479 206.603V192.004C207.479 192.004 228.402 196.342 225.733 172.48C223.064 148.617 214.066 139.007 212.516 139.485L183.221 148.314L180.401 204.152C180.401 204.152 194.93 226.973 207.479 206.603Z" fill="white"/>
<path d="M195.878 216.148C186.945 216.148 179.884 205.193 179.583 204.738C179.454 204.546 179.393 204.317 179.411 204.087L182.145 148.249C182.158 148.025 182.24 147.811 182.378 147.637C182.517 147.462 182.706 147.335 182.919 147.272L212.193 138.443C212.508 138.375 212.833 138.378 213.146 138.453C213.459 138.528 213.751 138.673 214.002 138.877C217.768 141.394 224.592 152.717 226.917 172.371C227.778 180.181 226.271 185.951 222.418 189.509C217.855 193.739 211.397 193.566 208.663 193.262V206.603C208.669 206.809 208.617 207.012 208.513 207.189C204.875 213.089 200.656 216.105 195.985 216.148H195.878ZM181.585 203.826C182.64 205.518 188.774 213.979 195.878 213.979C199.709 213.979 203.239 211.354 206.425 206.299V192.004C206.424 191.844 206.461 191.685 206.532 191.542C206.603 191.399 206.706 191.275 206.834 191.179C206.955 191.078 207.097 191.004 207.249 190.963C207.401 190.922 207.561 190.914 207.716 190.941C207.716 190.941 215.917 192.524 220.89 187.904C224.204 184.823 225.474 179.682 224.678 172.718C222.267 151.221 214.626 141.48 212.645 140.678L184.254 149.116L181.585 203.826Z" fill="#231F20"/>
<path d="M184.448 163.889C183.458 159.377 176.785 157.794 173.492 161.004C172.743 161.865 172.174 162.869 171.82 163.956C171.466 165.044 171.333 166.192 171.429 167.332C171.526 168.473 171.849 169.582 172.381 170.593C172.913 171.604 173.642 172.497 174.525 173.217C176.403 174.59 178.663 175.329 180.982 175.329C183.302 175.329 185.562 174.59 187.44 173.217" fill="white"/>
<path d="M180.638 176.341C178.199 176.414 175.808 175.649 173.857 174.172C172.797 173.285 171.934 172.184 171.322 170.939C170.71 169.695 170.364 168.335 170.306 166.948C170.244 165.753 170.428 164.558 170.847 163.438C171.265 162.318 171.909 161.297 172.738 160.44C173.777 159.512 175.04 158.875 176.4 158.593C177.76 158.311 179.169 158.395 180.487 158.835C181.692 159.144 182.791 159.774 183.67 160.66C184.549 161.545 185.175 162.654 185.481 163.868C185.512 164.01 185.515 164.157 185.49 164.301C185.464 164.445 185.411 164.582 185.333 164.705C185.255 164.827 185.154 164.934 185.035 165.017C184.917 165.101 184.783 165.16 184.642 165.191C184.5 165.222 184.354 165.225 184.212 165.2C184.069 165.174 183.933 165.121 183.811 165.042C183.689 164.963 183.584 164.861 183.501 164.742C183.418 164.622 183.36 164.487 183.328 164.345C183.095 163.507 182.645 162.746 182.025 162.14C181.405 161.534 180.637 161.105 179.798 160.896C178.847 160.572 177.829 160.503 176.844 160.697C175.858 160.891 174.94 161.341 174.18 162.002C173.548 162.649 173.061 163.426 172.753 164.279C172.445 165.133 172.322 166.043 172.394 166.948C172.433 168.026 172.696 169.083 173.167 170.051C173.638 171.019 174.306 171.876 175.127 172.567C176.824 173.76 178.848 174.389 180.917 174.365C182.986 174.342 184.995 173.668 186.665 172.436C186.777 172.331 186.911 172.25 187.057 172.201C187.203 172.151 187.357 172.134 187.51 172.15C187.663 172.166 187.811 172.215 187.944 172.293C188.077 172.372 188.191 172.478 188.28 172.605C188.368 172.732 188.429 172.876 188.457 173.029C188.486 173.181 188.481 173.338 188.445 173.488C188.408 173.639 188.34 173.78 188.244 173.901C188.149 174.023 188.029 174.123 187.892 174.194C185.745 175.633 183.216 176.381 180.638 176.341Z" fill="#231F20"/>
<path d="M203.885 158.401C205.638 160.673 207.276 163.034 208.792 165.473C209.228 165.995 209.543 166.609 209.715 167.269C209.886 167.93 209.909 168.62 209.783 169.291C209.512 169.829 209.116 170.294 208.629 170.645C208.141 170.996 207.577 171.224 206.984 171.308C206.512 171.48 205.998 171.501 205.513 171.369C205.028 171.238 204.595 170.959 204.272 170.571" fill="white"/>
<path d="M206.167 172.371C205.654 172.406 205.141 172.303 204.681 172.075C204.22 171.846 203.826 171.5 203.54 171.07C203.414 170.848 203.38 170.585 203.444 170.337C203.509 170.09 203.667 169.878 203.885 169.746C204.105 169.619 204.366 169.584 204.612 169.649C204.857 169.714 205.068 169.874 205.198 170.094C205.413 170.484 206.231 170.506 206.877 170.354C207.523 170.202 208.62 169.877 209.029 168.965C209.438 168.054 208.75 166.97 208.147 165.994C206.617 163.574 204.964 161.235 203.196 158.987C203.118 158.888 203.061 158.776 203.026 158.655C202.992 158.534 202.981 158.408 202.995 158.283C203.009 158.158 203.047 158.037 203.108 157.927C203.168 157.817 203.249 157.72 203.347 157.642C203.444 157.563 203.556 157.505 203.676 157.47C203.796 157.436 203.921 157.425 204.045 157.439C204.169 157.453 204.289 157.492 204.398 157.553C204.507 157.613 204.604 157.695 204.681 157.794C206.493 160.095 208.181 162.492 209.74 164.974C210.269 165.612 210.642 166.367 210.829 167.177C211.015 167.987 211.011 168.83 210.816 169.638C210.498 170.328 210.015 170.927 209.41 171.382C208.805 171.836 208.097 172.132 207.35 172.241C206.962 172.33 206.565 172.373 206.167 172.371Z" fill="#231F20"/>
<path d="M197.483 158.626C198.172 158.626 198.73 157.829 198.729 156.846C198.728 155.864 198.169 155.068 197.479 155.069C196.79 155.069 196.231 155.866 196.232 156.849C196.233 157.831 196.793 158.627 197.483 158.626Z" fill="#231F20"/>
<path d="M211.595 157.36C212.281 157.298 212.768 156.455 212.682 155.477C212.596 154.498 211.969 153.755 211.282 153.816C210.595 153.878 210.109 154.721 210.195 155.699C210.281 156.678 210.908 157.421 211.595 157.36Z" fill="#231F20"/>
<path d="M166.948 166.991C165.484 166.991 163.547 166.124 161.631 162.653C159.516 159.337 158.013 155.662 157.197 151.806C156.816 149.804 156.892 147.74 157.418 145.771C157.943 143.802 158.906 141.979 160.232 140.439C161.44 139.182 162.978 138.296 164.666 137.885C166.354 137.474 168.123 137.555 169.768 138.118C169.507 132.746 171.294 127.477 174.762 123.388C178.711 118.955 183.506 115.369 188.86 112.845C195.184 109.576 201.8 106.918 208.62 104.906C212.947 103.275 217.65 102.944 222.16 103.951C229.779 106.251 233.675 114.798 234.063 121.544C234.32 126.574 233.263 131.583 230.996 136.072C228.73 140.56 225.334 144.37 221.148 147.121C220.899 147.276 220.599 147.326 220.314 147.261C220.028 147.196 219.779 147.021 219.62 146.773C219.541 146.65 219.487 146.512 219.461 146.367C219.436 146.222 219.439 146.074 219.471 145.931C219.503 145.787 219.563 145.652 219.648 145.532C219.733 145.412 219.84 145.311 219.964 145.233C223.802 142.678 226.919 139.166 229.013 135.038C231.106 130.91 232.104 126.306 231.91 121.674C231.566 115.557 228.187 108.073 221.6 106.099C217.496 105.23 213.232 105.561 209.309 107.053C202.621 109.023 196.134 111.631 189.937 114.841C184.852 117.197 180.286 120.553 176.505 124.712C174.711 126.757 173.403 129.188 172.679 131.819C171.955 134.45 171.836 137.212 172.329 139.897C172.39 140.126 172.374 140.369 172.285 140.588C172.195 140.808 172.037 140.991 171.834 141.112C171.645 141.254 171.414 141.331 171.178 141.331C170.941 141.331 170.711 141.254 170.521 141.112C169.214 140.203 167.628 139.795 166.049 139.962C164.47 140.129 163.002 140.86 161.911 142.023C160.794 143.329 159.993 144.879 159.571 146.55C159.149 148.222 159.118 149.969 159.479 151.654C160.261 155.197 161.653 158.574 163.59 161.633C164.494 163.217 165.893 165.039 167.357 164.714C167.645 164.649 167.947 164.701 168.197 164.86C168.447 165.018 168.625 165.27 168.692 165.56C168.723 165.704 168.725 165.853 168.699 165.998C168.673 166.143 168.618 166.281 168.537 166.404C168.457 166.527 168.353 166.633 168.232 166.715C168.111 166.798 167.974 166.855 167.831 166.883C167.542 166.957 167.246 166.994 166.948 166.991Z" fill="#231F20"/>
<path d="M207.48 192.004C202.324 190.701 197.36 188.724 192.713 186.125C192.713 186.125 192.434 195.887 207.307 200.551L207.48 192.004Z" fill="#231F20"/>
<path d="M207.307 201.505H207.028C191.637 196.689 191.766 186.58 191.766 186.147C191.775 185.979 191.827 185.816 191.918 185.675C192.008 185.534 192.134 185.42 192.283 185.344C192.426 185.258 192.59 185.213 192.756 185.213C192.923 185.213 193.087 185.258 193.23 185.344C197.794 187.884 202.662 189.823 207.716 191.114C207.923 191.164 208.106 191.284 208.236 191.454C208.365 191.623 208.432 191.833 208.427 192.047L208.254 200.594C208.247 200.74 208.206 200.883 208.135 201.011C208.064 201.139 207.965 201.249 207.845 201.332C207.692 201.452 207.501 201.514 207.307 201.505ZM193.919 187.947C194.586 190.68 197.083 195.973 206.382 199.227L206.511 192.72C202.158 191.583 197.937 189.983 193.919 187.947Z" fill="#231F20"/>
<path d="M168.842 263.07C168.842 263.07 220.244 322.596 252.122 307.823C284.001 293.05 331.162 234.587 331.162 234.587C331.162 234.587 346.036 218.946 343.066 218.1C340.095 217.254 330.301 226.778 330.301 226.778C330.301 226.778 341.365 213.501 337.103 213.501C332.841 213.501 324.791 223.35 324.791 223.35C324.791 223.35 337.964 208.36 332.432 209.206C326.9 210.052 320.12 218.209 320.12 218.209C320.12 218.209 333.293 205.367 328.192 205.8C323.09 206.234 309.486 219.055 309.486 219.055C309.486 219.055 315.018 206.213 310.756 206.646C306.495 207.08 305.655 218.534 299.198 224.522C292.74 230.509 251.606 270.338 243.964 269.925C236.323 269.513 202.335 232.657 202.335 232.657" fill="white"/>
<path d="M240.843 311.294C228.983 311.294 214.604 304.786 197.793 291.77C187.046 283.32 177.055 273.934 167.938 263.721C167.739 263.515 167.628 263.239 167.628 262.951C167.628 262.664 167.739 262.387 167.938 262.181C168.036 262.08 168.153 262 168.283 261.945C168.412 261.89 168.551 261.862 168.691 261.862C168.832 261.862 168.971 261.89 169.1 261.945C169.229 262 169.347 262.08 169.445 262.181C169.961 262.767 220.696 320.926 251.477 306.652C282.752 292.161 329.655 234.305 330.129 233.72C335.51 228.079 341.214 221.246 342.075 218.968C340.095 219.359 334.951 223.307 330.861 227.277C330.662 227.464 330.399 227.569 330.127 227.569C329.854 227.57 329.591 227.466 329.392 227.278C329.192 227.091 329.071 226.834 329.052 226.56C329.033 226.286 329.118 226.015 329.289 225.802C333.358 220.899 336.651 215.844 336.823 214.326C334.391 214.521 330.107 218.491 327.051 221.875L325.393 223.784C325.192 223.983 324.922 224.094 324.64 224.094C324.358 224.094 324.088 223.983 323.887 223.784C323.676 223.596 323.545 223.333 323.521 223.051C323.497 222.768 323.582 222.487 323.758 222.266C323.951 222.027 324.468 221.398 325.221 220.574C328.88 216.235 332.26 211.462 332.518 209.879C329.58 210.702 326.908 212.287 324.769 214.478C323.478 215.888 322.1 217.276 320.766 218.578C320.566 218.766 320.304 218.87 320.031 218.87C319.759 218.871 319.496 218.767 319.297 218.579C319.097 218.392 318.976 218.135 318.957 217.861C318.938 217.587 319.022 217.316 319.194 217.103C320.397 215.722 321.669 214.405 323.004 213.154C325.01 211.177 326.734 208.928 328.127 206.473C324.21 206.885 313.834 215.953 310.132 219.489C309.952 219.656 309.72 219.756 309.475 219.772C309.231 219.789 308.988 219.72 308.787 219.579C308.586 219.437 308.439 219.23 308.371 218.993C308.302 218.756 308.316 218.502 308.41 218.274C310.304 213.935 311.79 208.469 311.015 207.427C311.015 207.427 311.015 207.427 310.778 207.427C309.271 207.579 308.001 210.595 306.667 213.805C305.225 218.01 302.93 221.866 299.929 225.129L297.777 227.298C266.157 257.343 249.13 271.205 243.964 270.923C236.108 270.468 205.219 237.125 201.603 233.307C201.503 233.208 201.423 233.09 201.369 232.96C201.315 232.83 201.287 232.69 201.287 232.548C201.287 232.407 201.315 232.267 201.369 232.136C201.423 232.006 201.503 231.888 201.603 231.789C201.703 231.687 201.822 231.607 201.953 231.551C202.085 231.496 202.225 231.468 202.367 231.468C202.509 231.468 202.65 231.496 202.781 231.551C202.912 231.607 203.031 231.687 203.131 231.789C216.671 246.475 238.755 268.407 244.029 268.667C247.064 268.819 258.515 261.487 296.292 225.628L298.444 223.567C301.224 220.512 303.343 216.906 304.665 212.981C306.387 208.838 307.764 205.562 310.541 205.28C310.948 205.229 311.36 205.287 311.738 205.446C312.115 205.606 312.445 205.863 312.694 206.191C313.899 207.861 313.017 211.744 311.94 214.868C316.439 210.92 324.102 204.672 327.955 204.347C328.375 204.252 328.815 204.3 329.205 204.485C329.594 204.669 329.912 204.98 330.107 205.367C330.452 206.126 330.107 207.297 329.268 208.686C330.17 208.255 331.126 207.949 332.109 207.775C332.545 207.633 333.015 207.647 333.442 207.813C333.869 207.978 334.227 208.286 334.455 208.686C334.972 209.64 334.455 211.332 333.272 213.35C334.361 212.607 335.621 212.159 336.931 212.048C337.312 212.019 337.694 212.105 338.027 212.294C338.36 212.483 338.63 212.767 338.803 213.111C339.385 214.391 338.287 216.842 336.651 219.489C339.169 217.688 341.688 216.365 343.108 216.799C343.378 216.868 343.625 217.01 343.822 217.208C344.019 217.407 344.159 217.655 344.228 217.927C344.96 220.639 336.694 229.836 331.7 235.086C329.828 237.407 284.065 293.831 252.338 308.539C248.749 310.284 244.827 311.224 240.843 311.294Z" fill="#231F20"/>
<path d="M213.829 180.875C213.628 181.225 213.39 181.552 213.119 181.851C207.221 188.815 200.376 182.35 196.502 177.166C196.889 177.708 204.789 175.387 205.585 175.235L215.315 173.066C215.614 174.4 215.637 175.783 215.381 177.127C215.125 178.47 214.597 179.747 213.829 180.875Z" fill="#231F20"/>
<path d="M275.951 569.486L277.543 587.687C277.543 587.687 361.362 575.799 357.853 572.263C354.345 568.727 323.865 559.833 323.865 559.833" fill="white"/>
<path d="M277.543 588.771C277.301 588.768 277.066 588.684 276.876 588.532C276.647 588.343 276.5 588.07 276.467 587.773L274.874 569.573C274.849 569.285 274.937 568.999 275.121 568.777C275.305 568.555 275.568 568.416 275.854 568.39C276.139 568.365 276.423 568.454 276.643 568.639C276.863 568.824 277.001 569.09 277.027 569.377L278.512 586.45C306.494 582.458 349.889 575.495 356.346 572.458C352.041 569.725 334.821 564.171 323.564 560.874C323.429 560.836 323.303 560.772 323.193 560.685C323.083 560.598 322.991 560.49 322.923 560.367C322.855 560.243 322.812 560.108 322.796 559.968C322.78 559.828 322.793 559.686 322.832 559.55C322.912 559.274 323.097 559.039 323.346 558.897C323.595 558.755 323.89 558.717 324.166 558.791C327.309 559.724 355.012 567.859 358.606 571.503C358.794 571.684 358.925 571.915 358.987 572.169C359.048 572.422 359.035 572.688 358.951 572.935C357.638 576.862 307.463 584.519 277.672 588.749L277.543 588.771Z" fill="#231F20"/>
<path d="M207.931 576.341V591.114L132.077 591.656C132.077 591.656 145.466 578.814 158.209 573.673" fill="white"/>
<path d="M132.077 592.828C131.864 592.825 131.657 592.758 131.481 592.636C131.305 592.514 131.17 592.342 131.091 592.142C131.013 591.942 130.995 591.723 131.041 591.513C131.086 591.303 131.192 591.111 131.346 590.962C131.884 590.441 145.014 577.946 157.821 572.762C157.953 572.709 158.093 572.682 158.235 572.684C158.376 572.686 158.516 572.716 158.646 572.773C158.776 572.829 158.893 572.911 158.992 573.013C159.091 573.116 159.168 573.236 159.22 573.369C159.321 573.637 159.314 573.934 159.201 574.196C159.089 574.459 158.88 574.668 158.618 574.779C149.125 578.597 139.116 586.905 134.94 590.637L206.898 590.029V576.341C206.898 576.053 207.012 575.777 207.214 575.574C207.415 575.371 207.689 575.256 207.975 575.256C208.26 575.256 208.534 575.371 208.736 575.574C208.937 575.777 209.051 576.053 209.051 576.341V591.114C209.045 591.4 208.93 591.673 208.729 591.875C208.529 592.077 208.258 592.193 207.975 592.199L132.142 592.828H132.077Z" fill="#231F20"/>
<path d="M213.851 380.192C208.168 380.192 204.531 379.996 204.466 379.996C204.184 379.969 203.924 379.835 203.736 379.622C203.548 379.409 203.448 379.132 203.454 378.847C203.463 378.704 203.499 378.565 203.56 378.436C203.622 378.308 203.709 378.193 203.815 378.098C203.921 378.003 204.044 377.931 204.178 377.884C204.312 377.838 204.454 377.818 204.595 377.827C215.027 378.284 225.478 378.001 235.871 376.981C236.01 376.963 236.151 376.974 236.286 377.012C236.421 377.051 236.547 377.117 236.656 377.206C236.764 377.296 236.854 377.406 236.919 377.532C236.984 377.657 237.023 377.794 237.033 377.935C237.064 378.22 236.981 378.505 236.804 378.729C236.626 378.952 236.368 379.096 236.086 379.129C227.562 379.975 219.555 380.192 213.851 380.192Z" fill="white"/>
<path d="M321.261 384.595C321.017 384.599 320.78 384.515 320.593 384.357C320.373 384.178 320.23 383.92 320.194 383.637C320.158 383.354 320.231 383.068 320.4 382.838L342.075 354.637C342.256 354.419 342.512 354.279 342.791 354.242C343.07 354.206 343.353 354.277 343.582 354.442C343.809 354.621 343.956 354.884 343.992 355.172C344.028 355.46 343.951 355.751 343.776 355.982L322.122 384.183C322.018 384.313 321.887 384.417 321.738 384.488C321.589 384.56 321.426 384.596 321.261 384.595Z" fill="#D1D3D4"/>
<path d="M435.688 473.689C435.415 473.689 435.153 473.583 434.957 473.393C434.76 473.203 434.644 472.944 434.633 472.669L428.175 358.325C428.164 358.035 428.265 357.752 428.459 357.537C428.652 357.322 428.921 357.192 429.209 357.175C429.349 357.166 429.489 357.186 429.622 357.233C429.755 357.279 429.877 357.352 429.981 357.447C430.085 357.542 430.17 357.657 430.229 357.786C430.289 357.914 430.322 358.053 430.328 358.195L436.785 472.539C436.794 472.682 436.775 472.825 436.729 472.96C436.683 473.095 436.61 473.219 436.516 473.326C436.422 473.433 436.308 473.52 436.181 473.582C436.053 473.644 435.915 473.681 435.774 473.689H435.688Z" fill="#D1D3D4"/>
<path d="M639.163 210.096C637.911 212.193 636.79 214.366 635.806 216.604C626.378 236.583 614.173 261.183 589.785 264.741C572.673 267.236 555.065 263.895 538.922 258.233C533.9 256.545 529.15 254.126 524.823 251.052C519.7 247.126 515.373 241.225 510.853 236.583C509.712 235.39 507.71 234.197 506.548 235.455C505.386 236.713 506.333 237.863 507 238.926C509.366 242.716 512.06 246.288 515.05 249.599C511.413 248.124 507.689 246.822 503.922 245.673C500.657 244.473 497.303 243.537 493.891 242.874C493.257 242.879 492.639 243.083 492.126 243.46C491.879 243.66 491.708 243.939 491.641 244.251C491.574 244.563 491.616 244.889 491.76 245.174C491.934 245.424 492.162 245.632 492.428 245.781C494.978 247.472 497.774 248.753 500.715 249.577C498.183 248.308 495.423 247.57 492.6 247.408C491.373 247.408 489.845 247.582 489.436 248.753C489.027 249.924 490.232 251.161 491.351 251.855C493.861 253.417 496.56 254.649 499.38 255.521C497.172 254.404 494.884 253.454 492.535 252.679C491.071 252.202 489.177 251.898 488.23 253.157C487.961 253.573 487.817 254.059 487.817 254.556C487.817 255.053 487.961 255.539 488.23 255.955C488.792 256.762 489.528 257.429 490.383 257.907C492.638 259.321 495.061 260.443 497.594 261.248L490.77 258.862C490.281 258.609 489.738 258.477 489.188 258.477C488.638 258.477 488.095 258.609 487.606 258.862C486.508 259.751 486.939 261.574 487.778 262.745C489.531 264.628 491.699 266.069 494.106 266.953C497.271 268.474 500.511 269.828 503.814 271.01C525.791 279.687 544.97 291.987 569.078 294.005C595.705 296.174 625.581 288.972 645.427 270.142C657.438 258.753 669.858 239.121 667.706 221.528C666.995 215.779 666.113 207.84 661.097 204.174C655.738 200.16 646.03 202.134 641.725 206.712C640.766 207.755 639.908 208.888 639.163 210.096Z" fill="white"/>
<path d="M578.829 295.545C575.6 295.545 572.371 295.415 569.035 295.133C551.664 293.658 537.135 287.041 521.68 279.948C515.761 277.236 509.626 274.437 503.362 271.986L501.21 271.205C498.579 270.242 495.999 269.141 493.482 267.908L492.212 267.279C490.106 266.449 488.241 265.098 486.788 263.352C486.119 262.623 485.748 261.666 485.748 260.673C485.748 259.68 486.119 258.724 486.788 257.994C487.189 257.678 487.663 257.469 488.165 257.387C487.84 257.087 487.558 256.744 487.326 256.367C486.931 255.774 486.72 255.075 486.72 254.36C486.72 253.646 486.931 252.947 487.326 252.354C487.742 251.787 488.332 251.375 489.005 251.182C488.649 250.796 488.401 250.322 488.284 249.808C488.167 249.294 488.185 248.758 488.338 248.254C488.576 247.664 488.98 247.157 489.5 246.795C490.02 246.432 490.633 246.231 491.265 246.215C490.987 245.993 490.763 245.712 490.609 245.39C490.454 245.069 490.374 244.717 490.374 244.36C490.374 244.003 490.454 243.651 490.609 243.33C490.763 243.008 490.987 242.727 491.265 242.505C491.954 241.966 492.803 241.676 493.676 241.681C496.625 242.037 499.518 242.766 502.286 243.85L504.072 244.414C506.505 245.152 508.916 245.954 511.326 246.844C509.377 244.444 507.58 241.923 505.945 239.295C504.395 236.822 504.89 235.346 505.579 234.544C505.808 234.26 506.097 234.031 506.425 233.874C506.752 233.716 507.11 233.634 507.473 233.633C508.984 233.755 510.388 234.463 511.391 235.607C512.941 237.19 514.491 238.969 515.976 240.661C518.764 244.057 521.862 247.18 525.232 249.989C529.471 252.983 534.119 255.344 539.029 256.996C557.411 263.504 574.352 265.673 589.398 263.504C613.936 259.925 626.356 233.437 634.6 215.909C635.599 213.667 636.742 211.493 638.023 209.401C638.814 208.114 639.73 206.908 640.756 205.8C645.32 200.963 655.63 198.707 661.571 203.132C666.866 207.102 667.856 215.128 668.567 221.007V221.333C670.719 238.687 658.751 258.753 645.944 270.88C629.692 286.672 605.025 295.545 578.829 295.545ZM488.983 259.578C488.756 259.573 488.532 259.633 488.338 259.751C487.843 260.163 488.144 261.335 488.725 262.137C489.967 263.597 491.561 264.71 493.353 265.37L494.666 266.042C497.115 267.233 499.622 268.297 502.178 269.231L504.331 270.034C510.638 272.507 516.794 275.327 522.735 278.039C537.931 284.98 552.267 291.532 569.293 292.963C598.438 295.415 626.679 286.629 644.824 269.426C657.223 257.669 668.803 238.362 666.758 221.701V221.376C666.07 215.909 665.166 208.36 660.602 204.998C655.652 201.288 646.589 203.219 642.629 207.406C641.707 208.412 640.878 209.501 640.154 210.66C638.925 212.699 637.825 214.815 636.86 216.994C628.444 234.934 615.723 262.051 590.043 265.804C574.653 267.973 557.368 265.804 538.663 259.166C533.546 257.413 528.699 254.945 524.263 251.833C520.784 248.949 517.584 245.738 514.706 242.245C513.156 240.466 511.692 238.817 510.186 237.255C509.589 236.564 508.777 236.097 507.882 235.932C507.817 235.93 507.753 235.942 507.693 235.968C507.633 235.995 507.58 236.034 507.538 236.084C507.258 236.409 507.538 237.255 508.119 238.253C510.42 242.026 513.042 245.589 515.954 248.905C516.12 249.084 516.221 249.314 516.241 249.558C516.26 249.802 516.197 250.046 516.062 250.25C515.923 250.453 515.719 250.603 515.484 250.674C515.249 250.745 514.998 250.733 514.77 250.64C511.154 249.187 507.43 247.885 503.707 246.757L501.877 246.171C499.337 245.229 496.723 244.504 494.063 244.002C493.668 244.005 493.28 244.117 492.944 244.327C492.893 244.369 492.853 244.422 492.827 244.482C492.801 244.543 492.789 244.609 492.793 244.675C492.889 244.769 492.998 244.85 493.116 244.913C494.273 245.689 495.489 246.371 496.754 246.952C498.331 247.358 499.861 247.932 501.317 248.666C501.555 248.784 501.741 248.987 501.837 249.237C501.932 249.486 501.931 249.762 501.834 250.011C501.733 250.26 501.548 250.464 501.311 250.587C501.074 250.711 500.802 250.745 500.542 250.684C499 250.25 497.496 249.692 496.044 249.013C494.926 248.75 493.788 248.583 492.643 248.514C491.739 248.514 490.748 248.644 490.49 249.122C490.232 249.599 491.093 250.423 491.954 250.966C492.449 251.291 492.987 251.595 493.504 251.877C495.712 252.63 497.869 253.529 499.961 254.567C500.198 254.692 500.38 254.9 500.476 255.152C500.571 255.403 500.571 255.681 500.478 255.933C500.373 256.182 500.182 256.385 499.941 256.505C499.7 256.624 499.425 256.652 499.165 256.584C496.93 255.892 494.768 254.984 492.707 253.872L492.277 253.721C491.545 253.482 489.801 253.026 489.22 253.721C489.092 253.97 489.036 254.251 489.059 254.531C489.082 254.811 489.183 255.079 489.349 255.304C489.827 255.976 490.453 256.526 491.179 256.909C493.271 258.222 495.511 259.278 497.852 260.055L498.153 260.163C498.402 260.267 498.603 260.461 498.717 260.707C498.831 260.953 498.849 261.233 498.768 261.492C498.687 261.751 498.512 261.97 498.279 262.105C498.045 262.241 497.77 262.283 497.507 262.224H497.184L490.469 260.055C489.997 259.829 489.498 259.668 488.983 259.578Z" fill="#231F20"/>
<path d="M418.92 129.592C418.634 129.592 418.36 129.478 418.159 129.275C417.957 129.071 417.843 128.795 417.843 128.508V61.2591C417.843 60.9714 417.957 60.6955 418.159 60.4921C418.36 60.2887 418.634 60.1744 418.92 60.1744C419.205 60.1744 419.479 60.2887 419.681 60.4921C419.882 60.6955 419.996 60.9714 419.996 61.2591V128.508C419.996 128.795 419.882 129.071 419.681 129.275C419.479 129.478 419.205 129.592 418.92 129.592Z" fill="#D1D3D4"/>
<path d="M288.004 118.594C287.838 118.592 287.673 118.553 287.524 118.477C287.375 118.402 287.245 118.294 287.143 118.16L267.771 91.2824C267.688 91.167 267.628 91.0363 267.594 90.8975C267.561 90.7587 267.555 90.6147 267.577 90.4737C267.622 90.189 267.777 89.9336 268.008 89.7639C268.239 89.5942 268.528 89.524 268.81 89.5687C269.093 89.6135 269.346 89.7695 269.514 90.0025L288.887 116.88C289.05 117.115 289.117 117.405 289.073 117.688C289.029 117.971 288.877 118.226 288.65 118.399C288.459 118.528 288.234 118.596 288.004 118.594Z" fill="#D1D3D4"/>
<path d="M163.59 258.536C163.423 258.535 163.259 258.495 163.11 258.42C162.961 258.345 162.83 258.236 162.729 258.103C154.485 247.061 147.877 236.691 147.812 236.583C147.737 236.462 147.686 236.327 147.663 236.186C147.64 236.046 147.644 235.902 147.676 235.763C147.708 235.623 147.767 235.492 147.849 235.376C147.932 235.26 148.036 235.161 148.157 235.086C148.276 235.007 148.41 234.954 148.55 234.929C148.69 234.904 148.834 234.907 148.973 234.94C149.112 234.972 149.242 235.033 149.357 235.118C149.472 235.202 149.569 235.31 149.642 235.433C149.642 235.433 156.25 245.824 164.451 256.801C164.536 256.915 164.597 257.045 164.633 257.183C164.668 257.321 164.675 257.464 164.655 257.605C164.635 257.746 164.588 257.882 164.516 258.004C164.444 258.127 164.349 258.234 164.236 258.319C164.052 258.465 163.824 258.541 163.59 258.536Z" fill="#231F20"/>
<path d="M688.413 459.827C688.149 459.824 687.896 459.727 687.698 459.551C687.501 459.376 687.372 459.135 687.336 458.873C687.336 458.07 677.607 378.89 673.625 359.605C673.568 359.317 673.626 359.018 673.788 358.774C673.949 358.53 674.2 358.361 674.486 358.303C674.771 358.246 675.068 358.305 675.31 358.468C675.552 358.63 675.72 358.883 675.777 359.171C679.781 378.543 689.446 457.81 689.532 458.612C689.55 458.752 689.54 458.894 689.503 459.03C689.466 459.166 689.403 459.293 689.317 459.404C689.231 459.515 689.123 459.608 689.001 459.677C688.879 459.746 688.745 459.789 688.606 459.805L688.413 459.827Z" fill="white"/>
</svg>
