<svg width="937" height="815" viewBox="0 0 937 815" fill="none" xmlns="http://www.w3.org/2000/svg">
<path d="M620.833 377.099C692.079 377.099 749.835 310.446 749.835 228.225C749.835 146.005 692.079 79.3517 620.833 79.3517C549.587 79.3517 491.832 146.005 491.832 228.225C491.832 310.446 549.587 377.099 620.833 377.099Z" fill="white"/>
<path d="M620.927 378.45C595.181 378.45 570.013 369.64 548.607 353.133C527.2 336.626 510.515 313.164 500.663 285.714C490.81 258.264 488.232 228.059 493.255 198.918C498.278 169.777 510.676 143.009 528.881 122C547.086 100.991 570.28 86.6831 595.531 80.8866C620.782 75.0901 646.956 78.0651 670.742 89.4353C694.528 100.805 714.858 120.06 729.161 144.765C743.465 169.469 751.099 198.513 751.099 228.225C751.062 268.054 737.336 306.24 712.932 334.403C688.528 362.566 655.439 378.407 620.927 378.45ZM620.927 80.7034C595.644 80.7034 570.93 89.3554 549.908 105.565C528.886 121.775 512.502 144.815 502.827 171.771C493.152 198.727 490.62 228.389 495.553 257.005C500.485 285.622 512.66 311.908 530.537 332.539C548.414 353.17 571.192 367.22 595.988 372.912C620.785 378.605 646.487 375.683 669.845 364.518C693.203 353.352 713.167 334.444 727.214 310.184C741.26 285.924 748.757 257.402 748.757 228.225C748.72 189.113 735.24 151.615 711.275 123.959C687.31 96.3026 654.818 80.7463 620.927 80.7034Z" fill="#231F20"/>
<path d="M620.833 342.388C675.467 342.388 719.757 291.275 719.757 228.225C719.757 165.175 675.467 114.063 620.833 114.063C566.199 114.063 521.909 165.175 521.909 228.225C521.909 291.275 566.199 342.388 620.833 342.388Z" fill="#C896DA"/>
<path d="M620.833 308.947C659.464 308.947 690.78 272.807 690.78 228.225C690.78 183.644 659.464 147.503 620.833 147.503C582.202 147.503 550.886 183.644 550.886 228.225C550.886 272.807 582.202 308.947 620.833 308.947Z" fill="white"/>
<path d="M620.833 281.373C646.268 281.373 666.887 257.578 666.887 228.225C666.887 198.873 646.268 175.077 620.833 175.077C595.398 175.077 574.78 198.873 574.78 228.225C574.78 257.578 595.398 281.373 620.833 281.373Z" fill="#C896DA"/>
<path d="M94.2156 538.408V573.93L310.545 736.13C310.545 736.13 427.506 635.728 501.365 513.942C575.225 392.156 605.583 289.564 605.583 289.564H639.526V277.318L594.597 260.395L528.281 271.749V284.212L568.97 286.509C568.97 286.509 507.105 446.953 368.803 521.484C230.502 596.016 94.2156 538.408 94.2156 538.408Z" fill="#D1D3D4"/>
<path d="M310.545 737.563C310.32 737.575 310.097 737.499 309.913 737.347L93.5596 575.146C93.399 575.021 93.2678 574.852 93.1779 574.653C93.088 574.455 93.042 574.234 93.0443 574.011V538.408C93.047 538.192 93.0928 537.979 93.1781 537.787C93.2634 537.595 93.3859 537.428 93.5362 537.299C93.6934 537.18 93.8721 537.103 94.0588 537.075C94.2455 537.047 94.4352 537.068 94.6137 537.137C95.9724 537.732 232.072 593.907 368.311 520.484C496.774 451.252 559.834 305.811 567.19 287.996L528.211 285.807C527.912 285.786 527.632 285.634 527.427 285.383C527.223 285.132 527.109 284.8 527.11 284.455V271.965C527.112 271.639 527.214 271.324 527.398 271.076C527.583 270.829 527.837 270.665 528.117 270.614L594.41 259.287C594.587 259.245 594.771 259.245 594.948 259.287L639.878 276.21C640.113 276.295 640.318 276.464 640.466 276.692C640.613 276.92 640.694 277.196 640.697 277.48V289.726C640.691 290.08 640.565 290.417 640.346 290.665C640.127 290.912 639.833 291.051 639.526 291.051H606.403C603.171 301.54 571.781 400.266 502.326 514.78C429.193 635.35 312.396 736.239 311.225 737.266C311.031 737.446 310.793 737.55 310.545 737.563ZM95.3633 573.2L310.499 734.59C319.986 726.29 430.341 628.808 500.405 513.293C573.327 393.076 604.178 290.348 604.482 289.321C604.561 289.057 604.71 288.829 604.908 288.669C605.105 288.509 605.342 288.425 605.583 288.429H638.378V278.508L594.503 261.99L529.569 273.128V283.157L569.157 285.374C569.347 285.391 569.53 285.458 569.693 285.57C569.855 285.683 569.993 285.838 570.094 286.023C570.175 286.217 570.217 286.429 570.217 286.645C570.217 286.86 570.175 287.072 570.094 287.266C569.462 288.888 506.449 449.035 369.342 522.944C240.06 592.583 110.988 546.328 95.3633 540.3V573.2Z" fill="#231F20"/>
<path d="M639.526 277.534H602.187C579.119 337.5 551.123 394.776 518.583 448.575C435.916 582.851 312.443 689.606 312.443 689.606L245.424 643.189L180.256 598.043L94.1921 538.408C94.1921 538.408 235.843 552.276 406.752 428.192C505.816 356.283 563.887 271.965 563.887 271.965H528.281L621.84 221.926L639.526 277.534Z" fill="white"/>
<path d="M312.466 690.958C312.252 690.963 312.04 690.897 311.857 690.768L93.5832 539.57C93.3519 539.415 93.1735 539.173 93.0777 538.885C92.9819 538.597 92.9745 538.28 93.0566 537.986C93.1387 537.692 93.3054 537.44 93.529 537.271C93.7527 537.101 94.0198 537.026 94.2859 537.056C95.7148 537.191 237.553 549.437 406.143 427.057C495.158 362.501 551.518 287.05 561.404 273.317H528.281C528.127 273.354 527.968 273.356 527.814 273.323C527.659 273.289 527.512 273.221 527.381 273.122C527.249 273.023 527.136 272.895 527.047 272.745C526.958 272.595 526.896 272.427 526.864 272.249C526.831 272.072 526.83 271.889 526.859 271.71C526.888 271.532 526.947 271.362 527.033 271.21C527.119 271.058 527.23 270.928 527.359 270.825C527.489 270.723 527.635 270.651 527.789 270.614L621.348 220.467C621.495 220.387 621.655 220.346 621.817 220.346C621.979 220.346 622.139 220.387 622.285 220.467C622.436 220.538 622.572 220.644 622.685 220.779C622.798 220.914 622.885 221.075 622.941 221.251L640.627 276.967C640.691 277.171 640.712 277.39 640.687 277.605C640.662 277.82 640.593 278.025 640.485 278.202C640.377 278.38 640.233 278.525 640.066 278.625C639.899 278.725 639.714 278.778 639.526 278.778H602.913C599.469 287.915 567.775 370.827 519.496 449.251C437.673 582.148 314.411 689.498 313.169 690.579C312.982 690.799 312.733 690.934 312.466 690.958ZM98.8303 540.03L312.396 687.984C322.024 679.522 438.891 575.443 517.576 447.791C568.361 365.312 600.734 277.886 601.062 276.994C601.156 276.754 601.308 276.55 601.498 276.406C601.689 276.263 601.912 276.185 602.14 276.183H637.863L621.184 223.657L533.598 270.587H563.887C564.106 270.586 564.322 270.657 564.508 270.791C564.694 270.925 564.844 271.116 564.941 271.344C565.04 271.573 565.079 271.83 565.054 272.084C565.03 272.338 564.941 272.579 564.8 272.776C564.215 273.614 505.488 358.094 407.384 429.3C318.932 493.532 238.49 520.133 186.604 531.136C142.073 540.597 110.262 540.489 98.8303 540.03Z" fill="#231F20"/>
<path d="M344.067 569.523C337.812 572.551 277.118 618.913 246.502 642.378L181.404 597.476C202.369 586.662 237.928 568.901 250.296 567.496C267.982 565.468 317.69 553.979 335.938 543.544C354.186 533.109 413.241 486.422 424.953 492.721C436.666 499.02 352.429 565.468 344.067 569.523Z" fill="#E6E7E8"/>
<path d="M373.278 207.68C373.278 207.68 381.664 216.979 380.797 219.574C379.93 222.17 375.362 221.791 375.362 221.791" fill="white"/>
<path d="M376.018 223.17H375.269C375.115 223.157 374.965 223.11 374.827 223.031C374.689 222.951 374.566 222.841 374.465 222.707C374.26 222.436 374.158 222.082 374.179 221.724C374.201 221.365 374.346 221.031 374.581 220.796C374.816 220.56 375.122 220.441 375.433 220.467C376.955 220.467 379.345 220.25 379.696 219.115C380.047 217.979 376.393 213.059 372.458 208.707C372.348 208.581 372.261 208.432 372.201 208.267C372.142 208.102 372.111 207.926 372.111 207.747C372.111 207.569 372.142 207.392 372.201 207.227C372.261 207.063 372.348 206.913 372.458 206.788C372.565 206.662 372.692 206.562 372.833 206.493C372.974 206.425 373.125 206.39 373.278 206.39C373.43 206.39 373.582 206.425 373.722 206.493C373.863 206.562 373.991 206.662 374.098 206.788C377.447 210.491 382.905 217.141 381.921 220.142C380.938 223.143 377.588 223.17 376.018 223.17Z" fill="#231F20"/>
<path d="M369.108 193.622C373.793 196.326 374.215 204.436 375.199 209.842C376.557 217.114 377.799 224.413 378.876 231.74C379.556 236.389 369.249 239.174 367.164 238.255L372.341 255.989L348.916 252.042L346.854 236.687C346.854 236.687 342.591 221.494 344.793 211.086C346.327 204.51 349.418 198.557 353.718 193.893C353.718 193.893 364.517 190.973 369.108 193.622Z" fill="white"/>
<path d="M372.341 257.205H372.153L348.728 253.231C348.483 253.194 348.254 253.066 348.077 252.866C347.899 252.666 347.783 252.405 347.744 252.123L345.683 236.876C345.566 236.443 341.42 221.413 343.669 210.762C345.274 203.899 348.521 197.697 353.039 192.865C353.19 192.724 353.365 192.623 353.554 192.568C354.022 192.568 364.915 189.567 369.834 192.406C374.262 195.109 375.269 201.435 376.065 206.652C376.229 207.626 376.37 208.572 376.534 209.356C377.892 216.574 379.134 223.981 380.212 231.28C380.312 232.143 380.201 233.021 379.89 233.814C379.579 234.608 379.082 235.284 378.455 235.768C375.691 237.997 372.45 239.306 369.085 239.552L373.77 255.34C373.829 255.542 373.846 255.758 373.819 255.97C373.792 256.181 373.722 256.382 373.614 256.556C373.507 256.731 373.365 256.873 373.201 256.971C373.036 257.07 372.854 257.122 372.669 257.124L372.341 257.205ZM349.829 250.717L370.607 254.204L366.063 238.552C365.996 238.308 365.988 238.047 366.042 237.799C366.096 237.551 366.209 237.325 366.367 237.146C366.528 236.974 366.727 236.857 366.943 236.81C367.158 236.762 367.381 236.785 367.585 236.876C370.853 236.975 374.065 235.888 376.768 233.767C377.494 233.091 377.799 232.442 377.705 231.821C376.627 224.549 375.363 217.195 374.051 210.005C373.887 209.112 373.723 208.139 373.582 207.112C372.856 202.516 371.989 196.785 368.593 194.839C365.196 192.892 357.349 194.325 354.186 195.136C350.194 199.579 347.313 205.183 345.847 211.356C343.739 221.278 347.838 236.092 347.862 236.227L349.829 250.717Z" fill="#231F20"/>
<path d="M377.658 226.225C377.143 226.858 376.515 227.355 375.818 227.682C375.121 228.009 374.371 228.159 373.619 228.12C372.867 228.082 372.131 227.856 371.462 227.459C370.792 227.062 370.205 226.503 369.74 225.819" fill="white"/>
<path d="M373.652 229.577H373.371C372.484 229.501 371.621 229.206 370.841 228.712C370.061 228.217 369.382 227.535 368.85 226.711C368.73 226.58 368.636 226.422 368.573 226.246C368.51 226.07 368.48 225.881 368.484 225.69C368.489 225.5 368.529 225.313 368.6 225.141C368.672 224.97 368.775 224.818 368.901 224.695C369.027 224.573 369.174 224.482 369.333 224.43C369.491 224.377 369.658 224.364 369.821 224.391C369.984 224.418 370.141 224.485 370.28 224.586C370.42 224.688 370.539 224.823 370.631 224.981C370.965 225.507 371.389 225.949 371.876 226.279C372.363 226.609 372.904 226.82 373.465 226.901C374.719 226.83 375.912 226.256 376.838 225.279C376.947 225.152 377.077 225.051 377.219 224.983C377.362 224.914 377.515 224.879 377.67 224.879C377.824 224.879 377.978 224.914 378.12 224.983C378.263 225.051 378.393 225.152 378.501 225.279C378.611 225.402 378.697 225.549 378.756 225.712C378.815 225.874 378.846 226.048 378.846 226.225C378.846 226.401 378.815 226.575 378.756 226.738C378.697 226.9 378.611 227.048 378.501 227.171C377.185 228.614 375.466 229.468 373.652 229.577Z" fill="#231F20"/>
<path d="M369.621 208.226C370.106 208.067 370.219 206.797 369.874 205.389C369.528 203.982 368.854 202.969 368.369 203.128C367.884 203.287 367.77 204.557 368.116 205.964C368.461 207.372 369.135 208.385 369.621 208.226Z" fill="#231F20"/>
<path d="M345.308 257.53L345.589 249.041L373.98 247.095L379.883 260.936C368.276 261.748 356.628 260.601 345.308 257.53Z" fill="white"/>
<path d="M373.278 262.477C363.778 262.472 354.309 261.23 345.051 258.773C344.784 258.709 344.546 258.538 344.379 258.291C344.211 258.043 344.126 257.735 344.137 257.421L344.512 248.96C344.518 248.623 344.635 248.3 344.839 248.059C345.044 247.818 345.321 247.676 345.613 247.662L374.004 245.716C374.235 245.703 374.464 245.768 374.663 245.902C374.863 246.036 375.024 246.235 375.128 246.473L381.031 260.314C381.124 260.504 381.172 260.718 381.172 260.936C381.172 261.154 381.124 261.368 381.031 261.558C380.941 261.75 380.81 261.913 380.65 262.031C380.49 262.149 380.307 262.219 380.118 262.233C380.118 262.233 377.447 262.477 373.278 262.477ZM346.503 256.394C356.859 259.085 367.472 260.22 378.08 259.773L373.278 248.554L346.714 250.366L346.503 256.394Z" fill="#231F20"/>
<path d="M442.381 286.807C444.632 283.055 446.652 279.126 448.425 275.047C448.556 272.095 448.997 269.172 449.737 266.342C450.885 263.639 454.094 260.936 455.78 264.585C455.78 264.585 456.366 258.259 460.138 261.531C461.794 262.85 463.062 264.722 463.769 266.897C464.477 269.072 464.591 271.444 464.096 273.696C463.347 278.535 449.175 303.595 449.175 303.595" fill="white"/>
<path d="M449.175 304.973C448.949 304.981 448.727 304.905 448.542 304.757C448.281 304.563 448.098 304.258 448.032 303.908C447.966 303.558 448.023 303.193 448.191 302.892C453.836 292.916 462.433 276.831 462.948 273.506C463.4 271.506 463.305 269.393 462.676 267.457C462.047 265.522 460.915 263.858 459.435 262.693C458.802 262.152 458.287 261.936 458.006 262.071C457.725 262.206 457.045 263.828 456.952 264.774C456.925 265.063 456.819 265.334 456.649 265.548C456.479 265.761 456.254 265.906 456.007 265.961C455.76 266.015 455.505 265.977 455.278 265.851C455.052 265.725 454.866 265.518 454.75 265.261C454.234 264.153 453.719 264.153 453.555 264.153C452.949 264.331 452.387 264.667 451.912 265.136C451.436 265.604 451.061 266.193 450.814 266.856C450.214 268.699 449.89 270.646 449.854 272.614C449.81 273.521 449.717 274.424 449.573 275.318C447.8 279.588 445.716 283.675 443.342 287.537C443.159 287.799 442.897 287.973 442.609 288.024C442.321 288.076 442.026 288.002 441.783 287.815C441.539 287.629 441.365 287.345 441.294 287.019C441.222 286.692 441.259 286.347 441.397 286.05C443.606 282.453 445.571 278.667 447.277 274.723C447.393 273.954 447.472 273.177 447.511 272.398C447.566 270.12 447.962 267.87 448.683 265.748C449.087 264.601 449.742 263.595 450.583 262.827C451.425 262.06 452.425 261.557 453.485 261.368C454.086 261.347 454.679 261.525 455.195 261.882C455.53 260.833 456.201 259.972 457.069 259.476C457.712 259.218 458.404 259.17 459.07 259.337C459.735 259.504 460.348 259.879 460.84 260.422C462.679 261.89 464.086 263.971 464.873 266.386C465.659 268.801 465.789 271.436 465.244 273.939C464.471 278.913 451.611 301.756 450.158 304.351C450.05 304.539 449.903 304.693 449.732 304.801C449.561 304.909 449.37 304.968 449.175 304.973Z" fill="#231F20"/>
<path d="M268.427 338.17C268.427 338.17 265.288 344.172 263.485 348.741C262.101 353.113 261.127 357.645 260.58 362.257C259.666 360.743 258.05 360.23 257.066 358.878C256.787 360.842 256.233 362.741 255.426 364.501C255.004 365.368 254.402 366.1 253.674 366.633C252.947 367.166 252.116 367.483 251.257 367.556C250.337 367.51 249.435 367.243 248.61 366.772C245.564 365.285 240.552 362.609 240.224 358.175C240.213 356.464 240.627 354.784 241.418 353.336C244.3 347.173 256.27 331.547 258.214 329.006" fill="white"/>
<path d="M251.233 368.691C250.161 368.635 249.11 368.332 248.141 367.799C245.541 366.529 239.474 363.555 239.052 358.067C239.017 356.1 239.481 354.164 240.388 352.498C243.597 345.605 257.207 328.168 257.347 327.898C257.45 327.765 257.575 327.656 257.714 327.579C257.854 327.501 258.005 327.456 258.16 327.446C258.314 327.436 258.469 327.461 258.615 327.52C258.761 327.579 258.895 327.671 259.01 327.79C259.126 327.909 259.22 328.052 259.287 328.213C259.354 328.374 259.393 328.549 259.402 328.727C259.411 328.905 259.389 329.084 259.338 329.252C259.287 329.421 259.207 329.576 259.104 329.709C255.59 334.197 245.049 348.227 242.472 353.769C241.778 354.98 241.403 356.398 241.395 357.851C241.653 361.257 245.635 363.636 249.078 365.312C249.748 365.707 250.482 365.937 251.233 365.988C251.895 365.919 252.531 365.663 253.086 365.244C253.642 364.824 254.1 364.253 254.419 363.582C255.17 361.962 255.677 360.207 255.918 358.391C255.965 358.144 256.071 357.916 256.224 357.734C256.377 357.553 256.572 357.424 256.785 357.364C256.995 357.294 257.219 357.297 257.428 357.374C257.637 357.451 257.821 357.598 257.956 357.797C258.371 358.287 258.844 358.706 259.362 359.04L259.76 359.365C260.309 355.501 261.204 351.714 262.431 348.065C264.234 343.469 267.28 337.576 267.42 337.251C267.497 337.099 267.6 336.966 267.722 336.86C267.845 336.754 267.984 336.677 268.133 336.635C268.281 336.592 268.435 336.584 268.587 336.611C268.738 336.638 268.883 336.699 269.013 336.792C269.148 336.878 269.265 336.995 269.359 337.136C269.453 337.277 269.52 337.439 269.558 337.611C269.595 337.784 269.601 337.963 269.576 338.138C269.551 338.313 269.495 338.481 269.411 338.63C269.411 338.63 266.296 344.658 264.562 349.092C263.235 353.322 262.285 357.697 261.728 362.149C261.69 362.413 261.586 362.658 261.427 362.854C261.269 363.049 261.064 363.186 260.838 363.247C260.612 363.307 260.376 363.289 260.159 363.195C259.942 363.101 259.754 362.934 259.62 362.717C259.19 362.113 258.666 361.608 258.074 361.23L257.769 361.014C257.486 362.382 257.028 363.694 256.41 364.907C255.889 365.973 255.144 366.871 254.244 367.519C253.343 368.166 252.316 368.541 251.257 368.61L251.233 368.691Z" fill="#231F20"/>
<path d="M405.089 486.233C405.089 486.233 402.746 504.886 409.446 507.643C416.145 510.401 450.486 478.826 448.097 471.824C445.708 464.822 434.042 462.416 423.501 471.824C417.66 477.113 411.508 481.928 405.089 486.233Z" fill="#231F20"/>
<path d="M410.359 509.13C409.921 509.14 409.484 509.057 409.071 508.887C401.692 505.886 403.683 488.071 403.941 486.044C403.967 485.837 404.032 485.639 404.134 485.466C404.235 485.292 404.37 485.148 404.527 485.043C410.894 480.775 416.999 476.006 422.798 470.77C425.455 468.137 428.6 466.244 431.992 465.236C435.383 464.228 438.93 464.133 442.358 464.958C443.852 465.328 445.249 466.098 446.437 467.206C447.625 468.315 448.571 469.73 449.198 471.337C449.503 472.257 450.463 475.095 443.037 483.935C435.237 493.235 417.457 509.13 410.359 509.13ZM406.166 487.071C405.604 492.478 405.3 504.508 409.844 506.373C413.522 507.86 430.927 494.478 441.351 482.043C446.411 476.041 447.301 473.068 447.02 472.284C446.517 471.072 445.777 470.011 444.858 469.185C443.939 468.36 442.867 467.792 441.726 467.526C438.645 466.838 435.468 466.967 432.437 467.904C429.405 468.84 426.598 470.56 424.227 472.932C418.48 478.094 412.447 482.816 406.166 487.071Z" fill="#231F20"/>
<path d="M335.938 401.753C335.938 401.753 376.885 414.432 407.455 407.971L404.691 486.152C404.691 486.152 416.286 491.018 428.912 472.202C428.912 472.202 441.116 376.152 433.222 371.53C425.328 366.907 352.968 372.368 352.968 372.368L335.938 401.753Z" fill="white"/>
<path d="M408.368 488.125C406.989 488.152 405.614 487.933 404.292 487.476C404.05 487.374 403.843 487.185 403.699 486.937C403.556 486.689 403.485 486.395 403.496 486.098L406.19 409.647C375.737 415.378 335.915 403.24 335.61 403.105C335.425 403.051 335.254 402.943 335.115 402.792C334.975 402.64 334.872 402.45 334.814 402.24C334.727 402.043 334.682 401.825 334.682 401.605C334.682 401.384 334.727 401.166 334.814 400.969L351.844 371.584C351.951 371.407 352.09 371.259 352.252 371.152C352.414 371.044 352.595 370.979 352.781 370.962C360.207 370.421 425.679 365.555 433.644 370.286C441.608 375.017 432.051 456.199 429.99 472.392C429.951 472.624 429.871 472.845 429.755 473.041C421.252 485.881 413.077 488.125 408.368 488.125ZM406.026 485.098C408.767 485.719 417.738 486.395 427.835 471.581C433.738 424.948 437.205 375.314 432.73 372.719C426.57 369.124 374.168 372.125 353.718 373.665L337.953 400.699C345.894 402.943 380.797 412.026 407.314 406.43C407.492 406.386 407.677 406.392 407.853 406.449C408.028 406.505 408.189 406.61 408.322 406.754C408.463 406.887 408.575 407.057 408.648 407.25C408.722 407.443 408.754 407.653 408.743 407.863L406.026 485.098Z" fill="#231F20"/>
<path d="M313.31 388.128C313.31 388.128 302.511 464.606 300.403 465.823C298.294 467.039 239.498 525.918 239.498 525.918L256.855 543.544C256.855 543.544 322.445 497.749 326.17 484.205C329.895 470.662 359.129 388.128 359.129 388.128H313.31Z" fill="white"/>
<path d="M256.879 544.923C256.584 544.925 256.3 544.8 256.082 544.571L238.724 526.972C238.591 526.843 238.484 526.682 238.411 526.499C238.338 526.317 238.3 526.119 238.3 525.918C238.3 525.717 238.338 525.519 238.411 525.337C238.484 525.155 238.591 524.993 238.724 524.864C248.305 515.294 295.108 468.445 299.629 464.795C301.41 460.957 308.226 415.784 312.162 387.912C312.206 387.582 312.351 387.282 312.57 387.064C312.789 386.846 313.067 386.725 313.356 386.723H359.199C359.395 386.723 359.588 386.78 359.76 386.889C359.932 386.997 360.077 387.154 360.183 387.344C360.298 387.531 360.369 387.748 360.39 387.975C360.41 388.203 360.379 388.432 360.3 388.642C360.019 389.48 331.019 471.31 327.388 484.638C323.617 498.506 260.252 542.841 257.558 544.733C257.353 544.872 257.116 544.937 256.879 544.923ZM241.348 525.999L257.019 541.868C275.759 528.784 322.164 494.397 324.952 483.854C328.325 471.419 352.734 402.348 357.255 389.588H314.317C303.588 465.606 301.667 466.715 300.941 467.12C298.997 468.418 264.656 502.615 241.442 525.945L241.348 525.999Z" fill="#231F20"/>
<path d="M289.088 460.254C289.088 460.254 326.381 489.585 348.166 484.584C410.922 469.851 442.967 369.8 442.967 369.8C442.967 369.8 400.802 363.284 378.408 356.823L313.31 380.883L289.088 460.254Z" fill="#231F20"/>
<path d="M342.638 486.422C320.571 486.422 289.838 462.47 288.432 461.362C288.218 461.194 288.059 460.949 287.978 460.666C287.898 460.382 287.901 460.076 287.987 459.794L312.209 380.316C312.267 380.121 312.362 379.945 312.488 379.8C312.614 379.655 312.767 379.544 312.935 379.478L378.056 355.445C378.263 355.376 378.482 355.376 378.689 355.445C400.755 361.825 442.709 368.313 443.131 368.367C443.305 368.395 443.471 368.468 443.617 368.581C443.763 368.693 443.885 368.842 443.974 369.016C444.043 369.199 444.079 369.397 444.079 369.597C444.079 369.797 444.043 369.995 443.974 370.178C443.646 371.178 410.968 471.121 348.307 485.8C346.439 486.223 344.54 486.432 342.638 486.422ZM290.494 459.821C295.835 463.849 328.559 487.801 347.932 483.259C405.042 469.878 436.947 383.641 441.351 370.881C433.714 369.691 398.342 363.933 378.455 358.229L314.2 381.938L290.494 459.821Z" fill="#231F20"/>
<path d="M395.321 274.236C395.321 274.236 391.924 258.449 351.141 253.42C341.286 252.072 331.295 253.577 322.071 257.8C321.017 265.099 311.365 355.877 307.149 380.775C307.149 380.775 362.104 394.616 384.264 358.527C384.334 358.527 392.182 282.13 395.321 274.236Z" fill="#C896DA"/>
<path d="M348.166 270.587C348.166 270.587 306.657 275.993 296.116 281.914C285.574 287.834 250.296 333.088 250.296 333.088L266.436 350.957C266.436 350.957 293.75 320.328 301.339 316.354C308.929 312.38 340.272 320.274 340.272 320.274L348.166 270.587Z" fill="#C896DA"/>
<path d="M395.32 274.236L418.183 318.193L442.897 281.752L455.874 298.296C455.874 298.296 434.042 347.821 423.477 347.578C400.568 347.064 369.998 311.894 369.998 311.894L395.32 274.236Z" fill="#C896DA"/>
<path d="M256.879 543.625C255.637 525.567 248.469 520.214 243.339 522.187C238.209 524.161 234.719 524.729 236.171 542.273C237.624 559.818 245.846 585.067 254.115 582.824C262.384 580.58 258.12 561.575 256.879 543.625Z" fill="#231F20"/>
<path d="M253.154 584.175C251.658 584.129 250.214 583.532 249.032 582.472C242.215 576.849 236.335 557.169 234.977 542.3C233.571 525.215 236.71 523.161 242.355 521.025L242.964 520.809C244.163 520.364 245.434 520.247 246.679 520.467C247.923 520.688 249.105 521.24 250.133 522.079C254.49 525.405 257.301 532.893 258.027 543.409C258.284 547.221 258.683 551.113 259.081 554.871C260.604 569.388 261.892 581.905 254.396 583.986C253.988 584.095 253.573 584.158 253.154 584.175ZM245.494 523.026C244.921 523.026 244.351 523.135 243.808 523.35L243.199 523.593C238.771 525.242 236.171 526.297 237.413 542.057C238.584 556.033 244.183 575.146 250.367 580.283C250.858 580.757 251.434 581.1 252.054 581.287C252.673 581.474 253.321 581.501 253.951 581.364C259.456 579.85 258.261 568.415 256.879 555.168C256.481 551.411 256.082 547.491 255.825 543.625C254.911 530.703 251.14 525.972 248.961 524.323C247.917 523.486 246.673 523.042 245.401 523.053L245.494 523.026Z" fill="#231F20"/>
<path d="M363.252 180.43C352.049 178.041 340.481 180.827 331.042 188.189C327.984 190.545 325.409 193.645 323.499 197.272C318.112 208.085 321.813 221.386 318.486 232.902C315.16 244.418 303.869 253.204 296.537 261.233C288.104 270.451 279.905 280.346 274.846 292.43C266.436 312.57 271.145 331.007 283.115 347.335C284.732 349.63 286.607 351.667 288.69 353.39C292.886 356.29 297.61 358.021 302.487 358.446C311.506 359.824 324.507 360.851 332.471 354.499C338.163 349.93 342.521 339.279 342.825 331.52C343.13 323.762 340.365 315.3 342.286 307.568C345.144 296.079 357.185 290.159 360.042 278.697C362.08 270.424 358.731 261.693 354.538 254.61C351.305 249.203 347.323 242.877 349.056 236.578C350.087 232.848 352.921 230.226 355.006 227.171C357.611 223.287 359.102 218.562 359.269 213.654C359.457 209.302 357.583 205.301 357.723 201.111C360.909 202.787 364.751 201.111 367.937 200.732C371.989 200.218 376.042 199.597 380.094 198.894C379.244 193.95 376.924 189.503 373.535 186.323C370.544 183.475 367.026 181.459 363.252 180.43Z" fill="white"/>
<path d="M314.622 360.851C310.515 360.802 306.415 360.45 302.347 359.797C297.298 359.32 292.41 357.517 288.058 354.526C285.88 352.733 283.925 350.605 282.248 348.2C268.732 329.763 265.851 310.812 273.815 291.862C278.969 279.562 287.402 269.397 295.764 260.233C297.474 258.367 299.372 256.475 301.386 254.502C307.735 248.176 314.949 240.985 317.409 232.469C318.585 227.495 319.13 222.35 319.025 217.195C319.166 210.248 319.33 203.057 322.516 196.596C324.521 192.786 327.233 189.536 330.457 187.08C340.149 179.468 352.044 176.556 363.58 178.97C367.537 180.049 371.224 182.167 374.355 185.161C378.029 188.545 380.524 193.344 381.383 198.678C381.431 199.039 381.355 199.407 381.172 199.705C380.981 199.989 380.706 200.181 380.399 200.245C376.346 200.948 372.224 201.57 368.195 202.084C367.375 202.084 366.531 202.381 365.665 202.57C363.52 203.18 361.295 203.318 359.106 202.976C359.261 204.305 359.48 205.622 359.762 206.923C360.324 209.135 360.6 211.43 360.581 213.735C360.396 218.907 358.825 223.885 356.084 227.982C355.451 228.928 354.749 229.793 354.069 230.685C352.449 232.457 351.172 234.603 350.321 236.984C348.822 242.391 352.195 248.041 355.17 253.204L355.639 253.961C361.214 263.396 363.111 271.884 361.308 279.21C359.785 285.266 355.896 289.807 352.148 294.214C348.4 298.62 344.91 302.675 343.551 308.055C342.742 312.603 342.742 317.294 343.551 321.842C344.013 325.103 344.217 328.406 344.16 331.709C343.856 339.333 339.616 350.633 333.291 355.742C328.114 359.797 321.274 360.851 314.622 360.851ZM355.732 180.835C347.204 180.87 338.875 183.814 331.792 189.297C328.873 191.524 326.417 194.469 324.601 197.921C321.696 203.787 321.555 210.329 321.415 217.25C321.54 222.726 320.955 228.193 319.681 233.47C317.034 242.715 309.538 250.122 302.956 256.664C300.965 258.638 299.091 260.503 297.428 262.341C289.229 271.317 281.03 281.265 275.97 293.16C268.498 311.056 271.285 329.033 284.075 346.605C285.62 348.812 287.416 350.767 289.416 352.417C293.469 355.17 298.011 356.824 302.698 357.256C307.781 358.013 323.289 360.392 331.862 353.525C337.414 349.092 341.443 338.603 341.724 331.601C341.762 328.452 341.566 325.304 341.139 322.194C340.248 317.291 340.248 312.228 341.139 307.325C342.661 301.27 346.55 296.701 350.298 292.322C354.046 287.942 357.536 283.86 358.895 278.453C360.488 271.938 358.707 264.234 353.554 255.502L353.085 254.718C349.806 249.311 346.058 242.931 347.932 236.308C348.864 233.545 350.311 231.053 352.172 229.009C352.828 228.171 353.484 227.333 354.069 226.468C356.507 222.8 357.905 218.354 358.075 213.735C358.087 211.685 357.835 209.644 357.325 207.68C356.81 205.568 356.542 203.386 356.529 201.192C356.532 200.967 356.584 200.748 356.681 200.553C356.778 200.359 356.916 200.196 357.082 200.08C357.248 199.964 357.437 199.898 357.631 199.889C357.826 199.88 358.018 199.929 358.192 200.029C360.437 200.814 362.834 200.814 365.079 200.029C365.993 199.84 366.906 199.651 367.773 199.543C371.38 199.056 375.035 198.515 378.665 197.921C377.67 193.834 375.609 190.201 372.762 187.513C369.912 184.786 366.552 182.861 362.947 181.89C360.585 181.224 358.164 180.87 355.732 180.835Z" fill="#231F20"/>
<path d="M363.908 216.06C363.676 214.208 363.003 212.467 361.963 211.032C361.331 209.803 360.541 208.691 359.621 207.734C359.147 207.263 358.587 206.921 357.983 206.734C357.378 206.547 356.745 206.519 356.131 206.653C355.597 206.823 355.101 207.123 354.677 207.533C354.252 207.944 353.909 208.455 353.671 209.031C353.196 210.19 352.949 211.454 352.945 212.735C352.909 215.535 353.514 218.297 354.698 220.741C355.883 223.186 357.605 225.226 359.691 226.657L359.316 226.225" fill="white"/>
<path d="M359.621 228.009C359.414 228.014 359.21 227.948 359.035 227.82C356.773 226.262 354.906 224.047 353.619 221.395C352.332 218.743 351.672 215.747 351.703 212.708C351.709 211.221 351.997 209.754 352.546 208.41C352.862 207.658 353.314 206.994 353.872 206.462C354.43 205.93 355.08 205.543 355.779 205.328C356.569 205.148 357.383 205.175 358.162 205.41C358.941 205.644 359.664 206.078 360.277 206.68C361.317 207.718 362.217 208.93 362.947 210.275C364.114 211.914 364.853 213.901 365.079 216.006C365.085 216.184 365.061 216.361 365.008 216.528C364.955 216.694 364.874 216.847 364.769 216.978C364.665 217.109 364.539 217.214 364.399 217.289C364.259 217.363 364.108 217.405 363.954 217.412C363.645 217.419 363.346 217.288 363.119 217.046C362.892 216.805 362.754 216.47 362.736 216.114C362.518 214.514 361.918 213.016 361.003 211.789C360.412 210.676 359.677 209.673 358.824 208.815C358.489 208.463 358.09 208.203 357.656 208.053C357.223 207.904 356.765 207.868 356.318 207.95C355.952 208.088 355.614 208.31 355.324 208.603C355.034 208.896 354.799 209.253 354.631 209.653C354.237 210.635 354.037 211.707 354.046 212.789C354.028 215.151 354.504 217.482 355.434 219.586C356.364 221.689 357.72 223.503 359.387 224.873C359.651 224.924 359.896 225.065 360.089 225.279L360.464 225.711C360.652 225.958 360.755 226.275 360.755 226.603C360.755 226.932 360.652 227.249 360.464 227.495C360.364 227.646 360.236 227.769 360.091 227.858C359.945 227.947 359.785 227.998 359.621 228.009Z" fill="#231F20"/>
<path d="M418.933 348.984H418.722C395.508 343.983 370.256 309.947 369.178 308.434C369.058 308.303 368.964 308.144 368.901 307.968C368.838 307.792 368.808 307.603 368.812 307.413C368.817 307.222 368.857 307.035 368.928 306.864C369 306.692 369.102 306.54 369.229 306.418C369.355 306.295 369.502 306.204 369.661 306.152C369.819 306.1 369.986 306.087 370.149 306.113C370.312 306.14 370.469 306.207 370.608 306.309C370.748 306.41 370.867 306.545 370.959 306.703C371.216 307.028 396.726 341.468 419.144 346.253C419.454 346.286 419.741 346.459 419.941 346.735C420.141 347.012 420.238 347.368 420.21 347.727C420.182 348.085 420.031 348.416 419.792 348.647C419.553 348.878 419.244 348.989 418.933 348.957V348.984Z" fill="#231F20"/>
<path d="M367.164 238.146L356.084 234.984C357.363 238.195 359.635 240.74 362.455 242.12C366.789 244.58 368.803 243.769 368.803 243.769L367.164 238.146Z" fill="#231F20"/>
<path d="M367.937 245.229C365.249 244.971 362.66 243.937 360.409 242.222C358.157 240.507 356.316 238.167 355.053 235.416C354.981 235.186 354.967 234.937 355.013 234.697C355.058 234.458 355.162 234.239 355.311 234.064C355.452 233.884 355.634 233.75 355.836 233.679C356.038 233.608 356.253 233.601 356.458 233.659L367.538 236.822C367.73 236.875 367.907 236.981 368.054 237.132C368.201 237.283 368.314 237.474 368.382 237.687L370.022 243.31C370.119 243.647 370.097 244.015 369.961 244.333C369.825 244.652 369.586 244.896 369.295 245.013C368.857 245.176 368.397 245.25 367.937 245.229ZM358.567 237.119C359.807 238.686 361.303 239.954 362.971 240.85C364.291 241.667 365.727 242.207 367.211 242.445L366.274 239.228L358.567 237.119Z" fill="#231F20"/>
<path d="M310.546 737.563C310.393 737.556 310.243 737.514 310.104 737.44C309.965 737.365 309.841 737.259 309.739 737.128C309.636 736.997 309.557 736.844 309.507 736.677C309.456 736.51 309.435 736.334 309.445 736.158L311.389 689.552C311.407 689.198 311.545 688.867 311.773 688.629C312.001 688.391 312.3 688.266 312.607 688.281C312.76 688.288 312.91 688.33 313.049 688.405C313.187 688.48 313.311 688.586 313.414 688.717C313.516 688.848 313.595 689.001 313.646 689.168C313.696 689.334 313.717 689.511 313.708 689.687L311.717 736.293C311.705 736.639 311.575 736.967 311.356 737.204C311.137 737.442 310.846 737.571 310.546 737.563Z" fill="#231F20"/>
<path d="M605.583 291.105C605.336 291.109 605.094 291.022 604.892 290.856C604.69 290.691 604.538 290.457 604.459 290.186L601.039 277.94C600.992 277.773 600.974 277.597 600.986 277.422C600.998 277.247 601.04 277.077 601.11 276.921C601.18 276.765 601.276 276.626 601.392 276.514C601.509 276.401 601.643 276.316 601.789 276.264C602.084 276.153 602.405 276.182 602.682 276.344C602.958 276.506 603.168 276.788 603.264 277.129L606.684 289.348C606.78 289.688 606.755 290.059 606.615 290.378C606.474 290.698 606.23 290.94 605.935 291.051C605.822 291.095 605.703 291.114 605.583 291.105Z" fill="#231F20"/>
</svg>
